# This file uses centimeters as units for non-parametric coordinates.

mtllib WindowTextured.mtl
g default
v -3.320612 2.969277 -6.829217
v -3.247060 2.969277 -6.829217
v -3.320612 3.998182 -6.829217
v -3.247060 3.998182 -6.829217
v -3.320612 3.998182 -8.115977
v -3.247060 3.998182 -8.115977
v -3.320612 2.969277 -8.115977
v -3.247060 2.969277 -8.115977
v -3.247060 3.998182 -6.875393
v -3.320612 3.998182 -6.875393
v -3.320612 2.969277 -6.875393
v -3.247060 2.969277 -6.875393
v -3.247060 3.998182 -8.082019
v -3.320612 3.998182 -8.082019
v -3.320612 2.969277 -8.082019
v -3.247060 2.969277 -8.082019
v -3.247060 3.941061 -8.082019
v -3.247060 3.941061 -6.875393
v -3.247060 3.941061 -6.829217
v -3.320612 3.941061 -6.829217
v -3.320612 3.941061 -6.875393
v -3.320612 3.941061 -8.082019
v -3.320612 3.941061 -8.115977
v -3.247060 3.941061 -8.115977
v -3.247060 3.004595 -6.829217
v -3.320612 3.004595 -6.829217
v -3.320612 3.004595 -6.875393
v -3.320612 3.004595 -8.082019
v -3.320612 3.004595 -8.115977
v -3.247060 3.004595 -8.115977
v -3.247060 3.004595 -8.082019
v -3.247060 3.004595 -6.875393
v -3.218189 2.969277 -6.875393
v -3.218189 2.969277 -6.829217
v -3.218189 3.004595 -6.875393
v -3.218189 3.004595 -6.829217
v -3.218189 2.969277 -8.082019
v -3.218189 3.004595 -8.082019
v -3.218189 3.004595 -8.115977
v -3.218189 2.969277 -8.115977
v -3.218189 3.941061 -6.875393
v -3.218189 3.998182 -6.875393
v -3.218189 3.941061 -8.082019
v -3.218189 3.998182 -8.082019
v -3.218189 3.941061 -6.829217
v -3.218189 3.998182 -6.829217
v -3.218189 3.941061 -8.115977
v -3.218189 3.998182 -8.115977
v -3.348171 2.969277 -6.875393
v -3.348171 2.969277 -6.829217
v -3.348171 3.004595 -6.829217
v -3.348171 3.004595 -6.875393
v -3.348171 2.969277 -8.082019
v -3.348171 3.004595 -8.082019
v -3.348171 2.969277 -8.115977
v -3.348171 3.004595 -8.115977
v -3.348171 3.941061 -6.829217
v -3.348171 3.941061 -6.875393
v -3.348171 3.998182 -6.829217
v -3.348171 3.998182 -6.875393
v -3.348171 3.941061 -8.082019
v -3.348171 3.998182 -8.082019
v -3.348171 3.941061 -8.115977
v -3.348171 3.998182 -8.115977
vt 0.375000 0.000000
vt 0.625000 0.000000
vt 0.375000 0.250000
vt 0.625000 0.250000
vt 0.375000 0.500000
vt 0.625000 0.500000
vt 0.375000 0.750000
vt 0.625000 0.750000
vt 0.375000 1.000000
vt 0.625000 1.000000
vt 0.875000 0.000000
vt 0.875000 0.250000
vt 0.125000 0.000000
vt 0.125000 0.250000
vt 0.625000 0.258971
vt 0.633971 0.250000
vt 0.366029 0.250000
vt 0.375000 0.258971
vt 0.366029 0.000000
vt 0.375000 0.991029
vt 0.625000 0.991029
vt 0.633971 0.000000
vt 0.625000 0.493402
vt 0.868402 0.250000
vt 0.131598 0.250000
vt 0.375000 0.493402
vt 0.131598 0.000000
vt 0.375000 0.756598
vt 0.625000 0.756598
vt 0.868402 0.000000
vt 0.868402 0.236121
vt 0.633971 0.236121
vt 0.625000 0.236121
vt 0.375000 0.236121
vt 0.366029 0.236121
vt 0.131598 0.236121
vt 0.125000 0.236121
vt 0.375000 0.513879
vt 0.625000 0.513879
vt 0.875000 0.236121
vt 0.625000 0.008581
vt 0.375000 0.008581
vt 0.366029 0.008581
vt 0.131598 0.008581
vt 0.125000 0.008581
vt 0.375000 0.741419
vt 0.625000 0.741419
vt 0.875000 0.008581
vt 0.868402 0.008581
vt 0.633971 0.008581
vt 0.625000 0.000000
vt 0.633971 0.000000
vt 0.625000 0.008581
vt 0.868402 0.000000
vt 0.868402 0.008581
vt 0.633971 0.008581
vt 0.875000 0.000000
vt 0.875000 0.008581
vt 0.633971 0.236121
vt 0.868402 0.236121
vt 0.868402 0.250000
vt 0.633971 0.250000
vt 0.625000 0.250000
vt 0.625000 0.236121
vt 0.875000 0.236121
vt 0.875000 0.250000
vt 0.366029 0.000000
vt 0.375000 0.000000
vt 0.375000 0.008581
vt 0.131598 0.000000
vt 0.366029 0.008581
vt 0.131598 0.008581
vt 0.125000 0.000000
vt 0.125000 0.008581
vt 0.375000 0.236121
vt 0.375000 0.250000
vt 0.366029 0.250000
vt 0.131598 0.236121
vt 0.366029 0.236121
vt 0.131598 0.250000
vt 0.125000 0.250000
vt 0.125000 0.236121
vn 0.000000 0.000000 1.000000
vn 0.000000 0.000000 1.000000
vn 0.000000 0.000000 1.000000
vn 0.000000 0.000000 1.000000
vn 0.000000 1.000000 0.000000
vn 0.000000 1.000000 0.000000
vn 0.000000 1.000000 0.000000
vn 0.000000 1.000000 0.000000
vn 0.000000 0.000000 -1.000000
vn 0.000000 0.000000 -1.000000
vn 0.000000 0.000000 -1.000000
vn 0.000000 0.000000 -1.000000
vn 0.000000 -1.000000 0.000000
vn 0.000000 -1.000000 0.000000
vn 0.000000 -1.000000 0.000000
vn 0.000000 -1.000000 0.000000
vn 1.000000 0.000000 0.000000
vn 1.000000 0.000000 0.000000
vn 1.000000 0.000000 0.000000
vn 1.000000 0.000000 0.000000
vn -1.000000 0.000000 0.000000
vn -1.000000 0.000000 0.000000
vn -1.000000 0.000000 0.000000
vn -1.000000 0.000000 0.000000
vn 0.000000 1.000000 0.000000
vn 0.000000 1.000000 0.000000
vn -1.000000 0.000000 0.000000
vn -1.000000 0.000000 0.000000
vn 0.000000 -1.000000 0.000000
vn 0.000000 -1.000000 0.000000
vn 1.000000 0.000000 0.000000
vn 1.000000 0.000000 0.000000
vn 0.000000 1.000000 0.000000
vn 0.000000 1.000000 0.000000
vn -1.000000 0.000000 0.000000
vn -1.000000 0.000000 0.000000
vn 0.000000 -1.000000 0.000000
vn 0.000000 -1.000000 0.000000
vn 1.000000 0.000000 0.000000
vn 1.000000 0.000000 0.000000
vn 1.000000 0.000000 0.000000
vn 1.000000 0.000000 0.000000
vn 1.000000 0.000000 0.000000
vn 1.000000 0.000000 0.000000
vn 1.000000 0.000000 0.000000
vn 1.000000 0.000000 0.000000
vn 0.000000 0.000000 1.000000
vn 0.000000 0.000000 1.000000
vn 0.000000 0.000000 1.000000
vn 0.000000 0.000000 1.000000
vn -1.000000 0.000000 0.000000
vn -1.000000 0.000000 0.000000
vn -1.000000 0.000000 0.000000
vn -1.000000 0.000000 0.000000
vn -1.000000 0.000000 0.000000
vn -1.000000 0.000000 0.000000
vn -1.000000 0.000000 0.000000
vn -1.000000 0.000000 0.000000
vn 0.000000 0.000000 -1.000000
vn 0.000000 0.000000 -1.000000
vn 0.000000 0.000000 -1.000000
vn 0.000000 0.000000 -1.000000
vn 1.000000 0.000000 0.000000
vn 1.000000 0.000000 0.000000
vn -1.000000 0.000000 0.000000
vn -1.000000 0.000000 0.000000
vn -1.000000 0.000000 0.000000
vn -1.000000 0.000000 0.000000
vn 1.000000 0.000000 0.000000
vn 1.000000 0.000000 0.000000
vn 1.000000 0.000000 0.000000
vn 1.000000 0.000000 0.000000
vn 0.000000 -1.000000 0.000000
vn 0.000000 -1.000000 0.000000
vn 0.000000 0.000000 1.000000
vn 0.000000 0.000000 1.000000
vn 0.000000 -1.000000 0.000000
vn 0.000000 1.000000 0.000000
vn 0.000000 1.000000 0.000000
vn 0.000000 1.000000 0.000000
vn 0.000000 1.000000 0.000000
vn 0.000000 -1.000000 0.000000
vn 0.000000 0.000000 -1.000000
vn 0.000000 0.000000 -1.000000
vn 0.000000 -1.000000 0.000000
vn 0.000000 -1.000000 0.000000
vn 0.000000 -1.000000 0.000000
vn 0.000000 -1.000000 0.000000
vn 0.000000 1.000000 0.000000
vn 0.000000 1.000000 0.000000
vn 0.000000 1.000000 0.000000
vn 0.000000 0.000000 1.000000
vn 0.000000 0.000000 1.000000
vn 0.000000 0.000000 -1.000000
vn 0.000000 0.000000 -1.000000
vn 0.000000 1.000000 0.000000
vn 0.000000 0.000000 1.000000
vn 0.000000 0.000000 1.000000
vn 0.000000 0.000000 1.000000
vn 0.000000 0.000000 1.000000
vn 0.000000 0.000000 -1.000000
vn 0.000000 0.000000 -1.000000
vn 0.000000 0.000000 -1.000000
vn 0.000000 0.000000 -1.000000
vn 0.000000 -1.000000 0.000000
vn 0.000000 -1.000000 0.000000
vn 0.000000 0.000000 1.000000
vn 0.000000 0.000000 1.000000
vn 0.000000 -1.000000 0.000000
vn 0.000000 1.000000 0.000000
vn 0.000000 1.000000 0.000000
vn 0.000000 1.000000 0.000000
vn 0.000000 1.000000 0.000000
vn 0.000000 -1.000000 0.000000
vn 0.000000 0.000000 -1.000000
vn 0.000000 0.000000 -1.000000
vn 0.000000 0.000000 1.000000
vn 0.000000 0.000000 1.000000
vn 0.000000 1.000000 0.000000
vn 0.000000 1.000000 0.000000
vn 0.000000 -1.000000 0.000000
vn 0.000000 -1.000000 0.000000
vn 0.000000 -1.000000 0.000000
vn 0.000000 -1.000000 0.000000
vn 0.000000 1.000000 0.000000
vn 0.000000 1.000000 0.000000
vn 0.000000 0.000000 -1.000000
vn 0.000000 0.000000 -1.000000
vn 0.000000 0.000000 -1.000000
vn 0.000000 0.000000 -1.000000
vn 0.000000 0.000000 -1.000000
vn 0.000000 0.000000 -1.000000
vn 0.000000 0.000000 1.000000
vn 0.000000 0.000000 1.000000
vn 0.000000 0.000000 1.000000
vn 0.000000 0.000000 1.000000
s 1
g pCube143
usemtl initialShadingGroup
f 1/1/1 2/2/2 25/41/3 26/42/4
s 2
f 3/3/5 4/4/6 9/15/7 10/18/8
s 3
f 29/46/9 30/47/10 8/8/11 7/7/12
s 4
f 11/20/13 12/21/14 2/10/15 1/9/16
s 5
f 34/51/17 33/52/18 35/56/19 36/53/20
s 6
f 49/67/21 50/68/22 51/69/23 52/71/24
s 2
f 10/18/8 9/15/7 13/23/25 14/26/26
s 6
f 53/70/27 49/67/21 52/71/24 54/72/28
s 4
f 15/28/29 16/29/30 12/21/14 11/20/13
s 5
f 35/56/19 33/52/18 37/54/31 38/55/32
s 2
f 14/26/26 13/23/25 6/6/33 5/5/34
s 6
f 55/73/35 53/70/27 54/72/28 56/74/36
s 4
f 7/7/37 8/8/38 16/29/30 15/28/29
s 5
f 39/58/39 38/55/32 37/54/31 40/57/40
f 42/62/41 41/59/42 43/60/43 44/61/44
f 45/64/45 41/59/42 42/62/41 46/63/46
s 1
f 20/34/47 19/33/48 4/4/49 3/3/50
s 6
f 58/79/51 57/75/52 59/76/53 60/77/54
f 61/78/55 58/79/51 60/77/54 62/80/56
f 63/82/57 61/78/55 62/80/56 64/81/58
s 3
f 5/5/59 6/6/60 24/39/61 23/38/62
s 5
f 44/61/44 43/60/43 47/65/63 48/66/64
s 1
f 26/42/4 25/41/3 19/33/48 20/34/47
s 6
f 52/71/24 51/69/23 57/75/52 58/79/51
s off
f 28/44/65 27/43/66 21/35/67 22/36/68
s 6
f 56/74/36 54/72/28 61/78/55 63/82/57
s 3
f 23/38/62 24/39/61 30/47/10 29/46/9
s 5
f 47/65/63 43/60/43 38/55/32 39/58/39
s off
f 18/32/69 32/50/70 31/49/71 17/31/72
s 5
f 36/53/20 35/56/19 41/59/42 45/64/45
s 4
f 2/2/15 12/22/14 33/52/73 34/51/74
s 1
f 25/41/3 2/2/2 34/51/75 36/53/76
s 4
f 12/22/14 16/30/30 37/54/77 33/52/73
s off
f 31/49/78 32/50/79 35/56/80 38/55/81
s 4
f 16/30/30 8/11/38 40/57/82 37/54/77
s 3
f 8/11/11 30/48/10 39/58/83 40/57/84
s off
f 18/32/85 17/31/86 43/60/87 41/59/88
s 2
f 13/24/25 9/16/7 42/62/89 44/61/90
f 9/16/7 4/4/6 46/63/91 42/62/89
s 1
f 4/4/49 19/33/48 45/64/92 46/63/93
s 3
f 24/40/61 6/12/60 48/66/94 47/65/95
s 2
f 6/12/33 13/24/25 44/61/90 48/66/96
s off
f 17/31/97 31/49/98 38/55/99 43/60/100
s 3
f 30/48/10 24/40/61 47/65/95 39/58/83
s off
f 32/50/101 18/32/102 41/59/103 35/56/104
s 1
f 19/33/48 25/41/3 36/53/76 45/64/92
s 4
f 11/19/13 1/1/16 50/68/105 49/67/106
s 1
f 1/1/1 26/42/4 51/69/107 50/68/108
s 4
f 15/27/29 11/19/13 49/67/106 53/70/109
s off
f 27/43/110 28/44/111 54/72/112 52/71/113
s 4
f 7/13/37 15/27/29 53/70/109 55/73/114
s 3
f 29/45/9 7/13/12 55/73/115 56/74/116
s 1
f 20/34/47 3/3/50 59/76/117 57/75/118
s 2
f 3/3/5 10/17/8 60/77/119 59/76/120
s off
f 22/36/121 21/35/122 58/79/123 61/78/124
s 2
f 10/17/8 14/25/26 62/80/125 60/77/119
f 14/25/26 5/14/34 64/81/126 62/80/125
s 3
f 5/14/59 23/37/62 63/82/127 64/81/128
s 1
f 26/42/4 20/34/47 57/75/118 51/69/107
s off
f 21/35/129 27/43/130 52/71/131 58/79/132
f 28/44/133 22/36/134 61/78/135 54/72/136
s 3
f 23/37/62 29/45/9 56/74/116 63/82/127
