# This file uses centimeters as units for non-parametric coordinates.

mtllib FIleCabinet2.mtl
g default
v -10.153489 0.003138 -4.931848
v -8.900196 0.003138 -4.931848
v -10.153489 1.383906 -4.931848
v -8.900196 1.383906 -4.931848
v -10.153489 1.383906 -7.327187
v -8.900196 1.383906 -7.327187
v -10.153489 0.003138 -7.327187
v -8.900196 0.003138 -7.327187
v -10.153489 1.297974 -4.931848
v -10.153489 1.297974 -7.327187
v -8.900196 1.297974 -7.327187
v -8.900196 1.297974 -4.931848
v -10.153489 0.746424 -4.931848
v -10.153489 0.746424 -7.327187
v -8.900196 0.746424 -7.327187
v -8.900196 0.746424 -4.931848
v -10.153489 0.656536 -4.931848
v -10.153489 0.656536 -7.327187
v -8.900196 0.656536 -7.327187
v -8.900196 0.656536 -4.931848
v -10.153489 0.083668 -4.931848
v -10.153489 0.083668 -7.327187
v -8.900196 0.083668 -7.327187
v -8.900196 0.083668 -4.931848
v -10.153489 1.383906 -5.002337
v -10.153489 1.297974 -5.002337
v -10.153489 0.746424 -5.002337
v -10.153489 0.656536 -5.002337
v -10.153489 0.083668 -5.002337
v -10.153489 0.003138 -5.002337
v -8.900196 0.003138 -5.002337
v -8.900196 0.083668 -5.002337
v -8.900196 0.656536 -5.002337
v -8.900196 0.746424 -5.002337
v -8.900196 1.297974 -5.002337
v -8.900196 1.383906 -5.002337
v -10.153489 1.383906 -7.252010
v -10.153489 1.297974 -7.252010
v -10.153489 0.746424 -7.252010
v -10.153489 0.656536 -7.252010
v -10.153489 0.083668 -7.252010
v -10.153489 0.003138 -7.252010
v -8.900196 0.003138 -7.252010
v -8.900196 0.083668 -7.252010
v -8.900196 0.656536 -7.252010
v -8.900196 0.746424 -7.252010
v -8.900196 1.297974 -7.252010
v -8.900196 1.383906 -7.252010
v -8.900196 0.083668 -5.002337
v -8.900196 0.656536 -5.002337
v -8.900196 0.083668 -7.252010
v -8.900196 0.656536 -7.252010
v -8.900196 0.746424 -5.002337
v -8.900196 1.297974 -5.002337
v -8.900196 0.746424 -7.252010
v -8.900196 1.297974 -7.252010
v -10.089492 0.083668 -5.002337
v -10.089492 0.656536 -5.002337
v -10.089492 0.083668 -7.252010
v -10.089492 0.656536 -7.252010
v -10.089492 0.746424 -5.002337
v -10.089492 1.297974 -5.002337
v -10.089492 0.746424 -7.252010
v -10.089492 1.297974 -7.252010
vt 0.375000 0.000000
vt 0.625000 0.000000
vt 0.375000 0.250000
vt 0.625000 0.250000
vt 0.375000 0.500000
vt 0.625000 0.500000
vt 0.375000 0.750000
vt 0.625000 0.750000
vt 0.375000 1.000000
vt 0.625000 1.000000
vt 0.875000 0.000000
vt 0.875000 0.250000
vt 0.125000 0.000000
vt 0.125000 0.250000
vt 0.375000 0.234441
vt 0.125000 0.234441
vt 0.375000 0.515559
vt 0.625000 0.515559
vt 0.875000 0.234441
vt 0.625000 0.234441
vt 0.375000 0.134578
vt 0.125000 0.134578
vt 0.375000 0.615422
vt 0.625000 0.615422
vt 0.875000 0.134578
vt 0.625000 0.134578
vt 0.375000 0.118303
vt 0.125000 0.118303
vt 0.375000 0.631697
vt 0.625000 0.631697
vt 0.875000 0.118303
vt 0.625000 0.118303
vt 0.375000 0.014581
vt 0.125000 0.014581
vt 0.375000 0.735419
vt 0.625000 0.735419
vt 0.875000 0.014581
vt 0.625000 0.014581
vt 0.367643 0.250000
vt 0.375000 0.257357
vt 0.367643 0.234441
vt 0.367643 0.134578
vt 0.367643 0.118303
vt 0.367643 0.014581
vt 0.367643 0.000000
vt 0.375000 0.992643
vt 0.625000 0.992643
vt 0.632357 0.000000
vt 0.632357 0.014581
vt 0.632357 0.118303
vt 0.632357 0.134578
vt 0.632357 0.234441
vt 0.625000 0.257357
vt 0.632357 0.250000
vt 0.132846 0.250000
vt 0.375000 0.492154
vt 0.132846 0.234441
vt 0.132846 0.134578
vt 0.132846 0.118303
vt 0.132846 0.014581
vt 0.132846 0.000000
vt 0.375000 0.757846
vt 0.625000 0.757846
vt 0.867154 0.000000
vt 0.867154 0.014581
vt 0.867154 0.118303
vt 0.867154 0.134578
vt 0.867154 0.234441
vt 0.625000 0.492154
vt 0.867154 0.250000
vt 0.632357 0.118303
vt 0.632357 0.014581
vt 0.867154 0.014581
vt 0.867154 0.118303
vt 0.632357 0.234441
vt 0.632357 0.134578
vt 0.867154 0.134578
vt 0.867154 0.234441
vt 0.632357 0.118303
vt 0.632357 0.014581
vt 0.867154 0.014581
vt 0.867154 0.118303
vt 0.632357 0.234441
vt 0.632357 0.134578
vt 0.867154 0.134578
vt 0.867154 0.234441
vn 0.000000 0.000000 1.000000
vn 0.000000 0.000000 1.000000
vn 0.000000 0.000000 1.000000
vn 0.000000 0.000000 1.000000
vn 0.000000 1.000000 0.000000
vn 0.000000 1.000000 0.000000
vn 0.000000 1.000000 0.000000
vn 0.000000 1.000000 0.000000
vn 0.000000 0.000000 -1.000000
vn 0.000000 0.000000 -1.000000
vn 0.000000 0.000000 -1.000000
vn 0.000000 0.000000 -1.000000
vn 0.000000 -1.000000 0.000000
vn 0.000000 -1.000000 0.000000
vn 0.000000 -1.000000 0.000000
vn 0.000000 -1.000000 0.000000
vn 1.000000 0.000000 0.000000
vn 1.000000 0.000000 0.000000
vn 1.000000 0.000000 0.000000
vn 1.000000 0.000000 0.000000
vn -1.000000 0.000000 0.000000
vn -1.000000 0.000000 0.000000
vn -1.000000 0.000000 0.000000
vn -1.000000 0.000000 0.000000
vn -1.000000 0.000000 0.000000
vn -1.000000 0.000000 0.000000
vn -1.000000 0.000000 0.000000
vn -1.000000 0.000000 0.000000
vn 0.000000 0.000000 -1.000000
vn 0.000000 0.000000 -1.000000
vn 0.000000 0.000000 -1.000000
vn 0.000000 0.000000 -1.000000
vn 1.000000 0.000000 0.000000
vn 1.000000 0.000000 0.000000
vn 1.000000 0.000000 0.000000
vn 1.000000 0.000000 0.000000
vn 0.000000 0.000000 1.000000
vn 0.000000 0.000000 1.000000
vn 0.000000 0.000000 1.000000
vn 0.000000 0.000000 1.000000
vn -1.000000 0.000000 0.000000
vn -1.000000 0.000000 0.000000
vn 0.000000 0.000000 -1.000000
vn 0.000000 0.000000 -1.000000
vn 1.000000 0.000000 0.000000
vn 1.000000 0.000000 0.000000
vn 0.000000 0.000000 1.000000
vn 0.000000 0.000000 1.000000
vn -1.000000 0.000000 0.000000
vn -1.000000 0.000000 0.000000
vn 0.000000 0.000000 -1.000000
vn 0.000000 0.000000 -1.000000
vn 1.000000 0.000000 0.000000
vn 1.000000 0.000000 0.000000
vn 0.000000 0.000000 1.000000
vn 0.000000 0.000000 1.000000
vn -1.000000 0.000000 0.000000
vn -1.000000 0.000000 0.000000
vn -1.000000 0.000000 0.000000
vn -1.000000 0.000000 0.000000
vn -1.000000 0.000000 0.000000
vn -1.000000 0.000000 0.000000
vn 0.000000 -1.000000 0.000000
vn 0.000000 -1.000000 0.000000
vn 1.000000 0.000000 0.000000
vn 1.000000 0.000000 0.000000
vn 1.000000 0.000000 0.000000
vn 1.000000 0.000000 0.000000
vn 1.000000 0.000000 0.000000
vn 1.000000 0.000000 0.000000
vn 1.000000 0.000000 0.000000
vn 1.000000 0.000000 0.000000
vn 1.000000 0.000000 0.000000
vn 1.000000 0.000000 0.000000
vn 1.000000 0.000000 0.000000
vn 1.000000 0.000000 0.000000
vn 1.000000 0.000000 0.000000
vn 1.000000 0.000000 0.000000
vn 0.000000 1.000000 0.000000
vn 0.000000 1.000000 0.000000
vn -1.000000 0.000000 0.000000
vn -1.000000 0.000000 0.000000
vn -1.000000 0.000000 0.000000
vn -1.000000 0.000000 0.000000
vn -1.000000 0.000000 0.000000
vn -1.000000 0.000000 0.000000
vn 0.000000 -1.000000 0.000000
vn 0.000000 -1.000000 0.000000
vn 1.000000 0.000000 0.000000
vn 1.000000 0.000000 0.000000
vn 1.000000 0.000000 0.000000
vn 1.000000 0.000000 0.000000
vn 1.000000 0.000000 0.000000
vn 1.000000 0.000000 0.000000
vn 0.000000 1.000000 0.000000
vn 0.000000 1.000000 0.000000
vn 0.000000 0.000000 0.000000
vn 0.000000 0.000000 0.000000
vn 0.000000 0.000000 0.000000
vn 0.000000 0.000000 0.000000
vn 0.000000 0.000000 0.000000
vn 0.000000 0.000000 0.000000
vn 0.000000 0.000000 0.000000
vn 0.000000 0.000000 0.000000
vn 0.000000 0.000000 0.000000
vn 0.000000 0.000000 0.000000
vn 0.000000 0.000000 0.000000
vn 0.000000 0.000000 0.000000
vn 0.000000 0.000000 0.000000
vn 0.000000 0.000000 0.000000
vn 0.000000 0.000000 0.000000
vn 0.000000 0.000000 0.000000
vn 0.000000 0.000000 0.000000
vn 0.000000 0.000000 0.000000
vn 0.000000 0.000000 0.000000
vn 0.000000 0.000000 0.000000
vn 0.000000 0.000000 0.000000
vn 0.000000 0.000000 0.000000
vn 0.000000 0.000000 0.000000
vn 0.000000 0.000000 0.000000
vn 0.000000 0.000000 0.000000
vn 0.000000 0.000000 0.000000
vn 0.000000 0.000000 0.000000
vn 0.000000 0.000000 0.000000
vn 0.000000 0.000000 0.000000
vn 0.000000 0.000000 0.000000
vn 0.000000 0.000000 0.000000
vn 0.000000 0.000000 0.000000
vn 0.000000 0.000000 -1.000000
vn 0.000000 0.000000 -1.000000
vn 0.000000 0.000000 -1.000000
vn 0.000000 0.000000 -1.000000
vn 0.000000 1.000000 0.000000
vn 0.000000 1.000000 0.000000
vn 0.000000 1.000000 0.000000
vn 0.000000 1.000000 0.000000
vn 0.000000 0.000000 1.000000
vn 0.000000 0.000000 1.000000
vn 0.000000 0.000000 1.000000
vn 0.000000 0.000000 1.000000
vn 0.000000 -1.000000 0.000000
vn 0.000000 -1.000000 0.000000
vn 0.000000 -1.000000 0.000000
vn 0.000000 -1.000000 0.000000
vn 0.000000 0.000000 -1.000000
vn 0.000000 0.000000 -1.000000
vn 0.000000 0.000000 -1.000000
vn 0.000000 0.000000 -1.000000
vn 0.000000 1.000000 0.000000
vn 0.000000 1.000000 0.000000
vn 0.000000 1.000000 0.000000
vn 0.000000 1.000000 0.000000
vn 0.000000 0.000000 1.000000
vn 0.000000 0.000000 1.000000
vn 0.000000 0.000000 1.000000
vn 0.000000 0.000000 1.000000
vn 0.000000 -1.000000 0.000000
vn 0.000000 -1.000000 0.000000
vn 0.000000 -1.000000 0.000000
vn 0.000000 -1.000000 0.000000
s 1
g pCube104
usemtl initialShadingGroup
f 1/1/1 2/2/2 24/38/3 21/33/4
s 2
f 3/3/5 4/4/6 36/53/7 25/40/8
s 3
f 22/35/9 23/36/10 8/8/11 7/7/12
s 4
f 30/46/13 31/47/14 2/10/15 1/9/16
s 5
f 2/2/17 31/48/18 32/49/19 24/38/20
s 6
f 30/45/21 1/1/22 21/33/23 29/44/24
f 26/41/25 9/15/26 3/3/27 25/39/28
s 3
f 5/5/29 6/6/30 11/18/31 10/17/32
s 5
f 12/20/33 35/52/34 36/54/35 4/4/36
s 1
f 9/15/37 12/20/38 4/4/39 3/3/40
s 6
f 27/42/41 13/21/42 9/15/26 26/41/25
s 3
f 10/17/32 11/18/31 15/24/43 14/23/44
s 5
f 16/26/45 34/51/46 35/52/34 12/20/33
s 1
f 13/21/47 16/26/48 12/20/38 9/15/37
s 6
f 28/43/49 17/27/50 13/21/42 27/42/41
s 3
f 14/23/44 15/24/43 19/30/51 18/29/52
s 5
f 20/32/53 33/50/54 34/51/46 16/26/45
s 1
f 17/27/55 20/32/56 16/26/48 13/21/47
s 6
f 29/44/24 21/33/23 17/27/50 28/43/49
s 3
f 18/29/52 19/30/51 23/36/10 22/35/9
s 5
f 24/38/20 32/49/19 33/50/54 20/32/53
s 1
f 21/33/4 24/38/3 20/32/56 17/27/55
s 6
f 38/57/57 26/41/25 25/39/28 37/55/58
f 39/58/59 27/42/41 26/41/25 38/57/57
f 40/59/60 28/43/49 27/42/41 39/58/59
f 41/60/61 29/44/24 28/43/49 40/59/60
f 42/61/62 30/45/21 29/44/24 41/60/61
s 4
f 42/62/63 43/63/64 31/47/14 30/46/13
s 5
f 32/49/19 31/48/18 43/64/65 44/65/66
s off
f 58/79/67 57/80/68 59/81/69 60/82/70
s 5
f 34/51/46 33/50/54 45/66/71 46/67/72
s off
f 62/83/73 61/84/74 63/85/75 64/86/76
s 5
f 36/54/35 35/52/34 47/68/77 48/70/78
s 2
f 25/40/8 36/53/7 48/69/79 37/56/80
s 6
f 10/16/81 38/57/57 37/55/58 5/14/82
f 14/22/83 39/58/59 38/57/57 10/16/81
f 18/28/84 40/59/60 39/58/59 14/22/83
f 22/34/85 41/60/61 40/59/60 18/28/84
f 7/13/86 42/61/62 41/60/61 22/34/85
s 4
f 7/7/87 8/8/88 43/63/64 42/62/63
s 5
f 44/65/66 43/64/65 8/11/89 23/37/90
f 45/66/71 44/65/66 23/37/90 19/31/91
f 46/67/72 45/66/71 19/31/91 15/25/92
f 47/68/77 46/67/72 15/25/92 11/19/93
f 48/70/78 47/68/77 11/19/93 6/12/94
s 2
f 37/56/80 48/69/79 6/6/95 5/5/96
s off
f 33/50/97 32/49/98 49/72/99 50/71/100
f 32/49/101 44/65/102 51/73/103 49/72/104
f 44/65/105 45/66/106 52/74/107 51/73/108
f 45/66/109 33/50/110 50/71/111 52/74/112
f 35/52/113 34/51/114 53/76/115 54/75/116
f 34/51/117 46/67/118 55/77/119 53/76/120
f 46/67/121 47/68/122 56/78/123 55/77/124
f 47/68/125 35/52/126 54/75/127 56/78/128
f 50/71/129 49/72/130 57/80/131 58/79/132
f 49/72/133 51/73/134 59/81/135 57/80/136
f 51/73/137 52/74/138 60/82/139 59/81/140
f 52/74/141 50/71/142 58/79/143 60/82/144
f 54/75/145 53/76/146 61/84/147 62/83/148
f 53/76/149 55/77/150 63/85/151 61/84/152
f 55/77/153 56/78/154 64/86/155 63/85/156
f 56/78/157 54/75/158 62/83/159 64/86/160
