# This file uses centimeters as units for non-parametric coordinates.

mtllib BrickHarambe.mtl
g default
v 3.789851 4.009030 -2.832760
v 3.937877 4.009030 -2.832760
v 3.789851 5.228010 -2.832760
v 3.937877 5.228010 -2.832760
v 3.789851 5.228010 -4.193018
v 3.937877 5.228010 -4.193018
v 3.789851 4.009030 -4.193018
v 3.937877 4.009030 -4.193018
v 3.789851 5.228010 -3.627126
v 3.789851 4.009030 -3.627126
v 3.937877 4.009030 -3.627126
v 3.937877 5.228010 -3.627126
v 3.789851 5.228010 -3.386310
v 3.789851 4.009030 -3.386310
v 3.937878 4.009030 -3.386310
v 3.937878 5.228010 -3.386310
v 3.789851 4.484030 -4.193018
v 3.789465 4.484030 -3.627126
v 3.789954 4.483201 -3.386310
v 3.789851 4.484030 -2.832760
v 3.937878 4.484030 -2.832760
v 3.937611 4.483195 -3.386349
v 3.937216 4.484017 -3.627204
v 3.937878 4.484030 -4.193018
v 3.789851 4.138004 -4.193018
v 3.789864 4.138004 -3.627126
v 3.790056 4.138004 -3.386310
v 3.789851 4.138004 -2.832760
v 3.937877 4.138004 -2.832760
v 3.937878 4.138004 -3.386310
v 3.937877 4.138004 -3.627126
v 3.937877 4.138004 -4.193018
vt 0.507908 0.107181
vt 0.725789 0.107181
vt 0.725789 0.240161
vt 0.507908 0.240161
vt 0.725789 0.328827
vt 0.507908 0.328827
vt 0.507908 0.458043
vt 0.725789 0.458043
vt 0.725789 0.591023
vt 0.507908 0.591023
vt 0.507908 0.805141
vt 0.725789 0.805141
vt 0.725789 0.893806
vt 0.507908 0.893806
vt 0.814455 0.107181
vt 0.814455 0.240161
vt 0.419242 0.107181
vt 0.419242 0.240161
vt 0.290026 0.107181
vt 0.380669 0.107181
vt 0.380669 0.240161
vt 0.290026 0.240161
vt 0.507908 0.675925
vt 0.725789 0.675925
vt 0.725789 0.766567
vt 0.507908 0.766567
vt 0.853028 0.240161
vt 0.853028 0.107181
vt 0.943671 0.107181
vt 0.943671 0.240161
vt 0.507908 0.367400
vt 0.725789 0.367400
vt 0.290026 0.045333
vt 0.380669 0.045333
vt 0.419242 0.045333
vt 0.507908 0.045333
vt 0.725789 0.045333
vt 0.814455 0.045333
vt 0.853028 0.045333
vt 0.943671 0.045333
vt 0.725789 0.652872
vt 0.507908 0.652872
vt 0.290026 0.022280
vt 0.380669 0.022280
vt 0.419242 0.022280
vt 0.507908 0.022280
vt 0.725789 0.022280
vt 0.814455 0.022280
vt 0.853028 0.022280
vt 0.943671 0.022280
vt 0.059854 0.621621
vt 0.352266 0.621621
vt 0.352266 0.720603
vt 0.059854 0.720603
vt 0.024834 0.774773
vt 0.177198 0.774773
vt 0.177198 0.880996
vt 0.024834 0.880996
vt 0.142092 0.268695
vt 0.381291 0.268695
vt 0.381291 0.440515
vt 0.142092 0.440515
vt 0.015279 0.242683
vt 0.106522 0.242683
vt 0.106522 0.574325
vt 0.015279 0.574325
vn 0.000000 0.000000 1.000000
vn 0.000000 0.000000 1.000000
vn 0.000000 0.000000 1.000000
vn 0.000000 0.000000 1.000000
vn 0.000000 1.000000 0.000000
vn 0.000000 1.000000 0.000000
vn 0.000000 1.000000 0.000000
vn 0.000000 1.000000 0.000000
vn 0.000000 0.000000 -1.000000
vn 0.000000 0.000000 -1.000000
vn 0.000000 0.000000 -1.000000
vn 0.000000 0.000000 -1.000000
vn 0.000000 -1.000000 0.000000
vn 0.000000 -1.000000 0.000000
vn 0.000000 -1.000000 0.000000
vn 0.000000 -1.000000 0.000000
vn 1.000000 -0.000000 -0.000241
vn 1.000000 -0.000143 -0.000374
vn 1.000000 -0.000314 -0.000417
vn 1.000000 -0.000179 -0.000240
vn -1.000000 -0.000029 0.000115
vn -1.000000 -0.000094 -0.000152
vn -1.000000 -0.000069 -0.000093
vn -1.000000 0.000010 0.000243
vn -1.000000 -0.000006 -0.000337
vn -1.000000 0.000038 -0.000032
vn -1.000000 0.000239 0.000064
vn -1.000000 0.000259 -0.000341
vn 0.000000 -1.000000 0.000000
vn 0.000000 -1.000000 0.000000
vn 0.000000 -1.000000 0.000000
vn 0.000000 -1.000000 0.000000
vn 1.000000 -0.000498 0.000165
vn 1.000000 -0.000141 0.000268
vn 1.000000 -0.000000 0.000585
vn 1.000000 -0.000445 0.000585
vn 0.000000 1.000000 0.000000
vn 0.000000 1.000000 0.000000
vn 0.000000 1.000000 0.000000
vn 0.000000 1.000000 0.000000
vn -1.000000 -0.000406 -0.000237
vn -1.000000 -0.000277 -0.000171
vn -1.000000 0.000186 -0.000184
vn -1.000000 0.000108 -0.000253
vn 0.000000 0.000000 1.000000
vn 0.000000 0.000000 1.000000
vn 1.000000 0.000281 -0.000175
vn 1.000000 0.000252 -0.000157
vn 1.000000 0.000624 0.000382
vn 1.000000 0.000696 0.000426
vn 0.000000 0.000000 -1.000000
vn 0.000000 0.000000 -1.000000
vn -1.000000 0.000049 0.000011
vn -1.000000 0.000286 0.000127
vn -1.000000 0.000810 -0.000008
vn -1.000000 0.000795 -0.000186
vn 0.000000 0.000000 1.000000
vn 0.000000 0.000000 1.000000
vn 1.000000 0.000000 0.000000
vn 1.000000 0.000000 0.000000
vn 1.000000 0.000000 -0.000000
vn 1.000000 0.000000 0.000000
vn 0.000000 0.000000 -1.000000
vn 0.000000 0.000000 -1.000000
vn 0.000263 0.000113 1.000000
vn 0.000263 0.000113 1.000000
vn 0.000263 0.000113 1.000000
vn 0.000263 0.000113 1.000000
vn 0.000000 1.000000 0.000000
vn 0.000000 1.000000 0.000000
vn 0.000000 1.000000 0.000000
vn 0.000000 1.000000 0.000000
vn -0.000063 -0.999994 -0.003427
vn -0.000063 -0.999994 -0.003427
vn -0.000063 -0.999994 -0.003427
vn -0.000063 -0.999994 -0.003427
vn -0.000133 -0.000057 -1.000000
vn -0.000133 -0.000057 -1.000000
vn -0.000133 -0.000057 -1.000000
vn -0.000133 -0.000057 -1.000000
s 1
g polySurface252 polySurface241
usemtl initialShadingGroup
f 20/1/1 21/2/2 4/3/3 3/4/4
s 2
f 3/4/5 4/3/6 16/5/7 13/6/8
s 3
f 5/7/9 6/8/10 24/9/11 17/10/12
s 4
f 14/11/13 15/12/14 2/13/15 1/14/16
s 5
f 21/2/17 22/15/18 16/16/19 4/3/20
s 6
f 19/17/21 20/1/22 3/4/23 13/18/24
f 17/19/25 18/20/26 9/21/27 5/22/28
s 4
f 7/23/29 8/24/30 11/25/31 10/26/32
s 5
f 12/27/33 23/28/34 24/29/35 6/30/36
s 2
f 9/31/37 12/32/38 6/8/39 5/7/40
s 6
f 18/20/26 19/17/21 13/18/24 9/21/27
s 4
f 10/26/32 11/25/31 15/12/14 14/11/13
s 5
f 16/16/19 22/15/18 23/28/34 12/27/33
s 2
f 13/6/8 16/5/7 12/32/38 9/31/37
s 6
f 25/33/41 26/34/42 18/20/26 17/19/25
f 27/35/43 28/36/44 20/1/22 19/17/21
s 1
f 28/36/45 29/37/46 21/2/2 20/1/1
s 5
f 29/37/47 30/38/48 22/15/18 21/2/17
f 24/29/35 23/28/34 31/39/49 32/40/50
s 3
f 17/10/12 24/9/11 32/41/51 25/42/52
s 6
f 7/43/53 10/44/54 26/34/42 25/33/41
f 10/44/54 14/45/55 27/35/43 26/34/42
f 14/45/55 1/46/56 28/36/44 27/35/43
s 1
f 1/46/57 2/47/58 29/37/46 28/36/45
s 5
f 2/47/59 15/48/60 30/38/48 29/37/47
f 31/39/49 30/38/48 15/48/60 11/49/61
f 32/40/50 31/39/49 11/49/61 8/50/62
s 3
f 25/42/52 32/41/51 8/24/63 7/23/64
s off
f 31/51/65 23/52/66 18/53/67 26/54/68
f 30/55/69 31/56/70 26/57/71 27/58/72
f 19/59/73 18/60/74 23/61/75 22/62/76
f 30/63/77 27/64/78 19/65/79 22/66/80
