# This file uses centimeters as units for non-parametric coordinates.

mtllib MissionBoard.mtl
g default
v -10.376287 2.116630 3.185516
v -10.257747 2.116630 3.185516
v -10.376287 5.378163 3.185516
v -10.257747 5.378163 3.185516
v -10.376287 5.378163 -3.185516
v -10.257747 5.378163 -3.185516
v -10.376287 2.116630 -3.185516
v -10.257747 2.116630 -3.185516
v -10.257747 5.378163 -3.027633
v -10.376287 5.378163 -3.027633
v -10.376287 2.116630 -3.027633
v -10.257747 2.116630 -3.027633
v -10.376287 5.378163 3.017823
v -10.376287 2.116630 3.017823
v -10.257747 2.116630 3.017823
v -10.257747 5.378163 3.017823
v -10.257747 5.219899 3.185516
v -10.376287 5.219899 3.185516
v -10.376287 5.219899 3.017823
v -10.376287 5.219899 -3.027633
v -10.376287 5.219899 -3.185516
v -10.257747 5.219899 -3.185516
v -10.257747 5.219899 -3.027633
v -10.257747 5.219899 3.017823
v -10.257747 2.205554 3.185516
v -10.376287 2.205554 3.185516
v -10.376287 2.205554 3.017823
v -10.376287 2.205554 -3.027633
v -10.376287 2.205554 -3.185516
v -10.257747 2.205554 -3.185516
v -10.257747 2.205554 -3.027633
v -10.257747 2.205554 3.017823
v -10.199651 2.116630 3.017823
v -10.199651 2.116630 3.185516
v -10.199651 2.205554 3.017823
v -10.199651 2.205554 3.185516
v -10.199651 2.116630 -3.027633
v -10.199651 2.205554 -3.027633
v -10.199651 2.116630 -3.185516
v -10.199651 2.205554 -3.185516
v -10.199651 5.219899 -3.027633
v -10.199651 5.378163 -3.027633
v -10.199651 5.219899 -3.185516
v -10.199651 5.378163 -3.185516
v -10.199651 5.219899 3.017823
v -10.199651 5.378163 3.017823
v -10.199651 5.219899 3.185516
v -10.199651 5.378163 3.185516
vt 0.375000 0.000000
vt 0.625000 0.000000
vt 0.375000 0.250000
vt 0.625000 0.250000
vt 0.375000 0.500000
vt 0.625000 0.500000
vt 0.375000 0.750000
vt 0.625000 0.750000
vt 0.375000 1.000000
vt 0.625000 1.000000
vt 0.875000 0.000000
vt 0.875000 0.250000
vt 0.125000 0.000000
vt 0.125000 0.250000
vt 0.625000 0.481672
vt 0.856672 0.250000
vt 0.143328 0.250000
vt 0.375000 0.481672
vt 0.143328 0.000000
vt 0.375000 0.768328
vt 0.625000 0.768328
vt 0.856672 0.000000
vt 0.356326 0.250000
vt 0.375000 0.268674
vt 0.356326 0.000000
vt 0.375000 0.981326
vt 0.625000 0.981326
vt 0.643674 0.000000
vt 0.625000 0.268674
vt 0.643674 0.250000
vt 0.625000 0.227729
vt 0.375000 0.227729
vt 0.356326 0.227729
vt 0.143328 0.227729
vt 0.125000 0.227729
vt 0.375000 0.522271
vt 0.625000 0.522271
vt 0.875000 0.227729
vt 0.856672 0.227729
vt 0.643674 0.227729
vt 0.625000 0.017433
vt 0.375000 0.017433
vt 0.356326 0.017433
vt 0.143328 0.017433
vt 0.125000 0.017433
vt 0.375000 0.732567
vt 0.625000 0.732567
vt 0.875000 0.017433
vt 0.856672 0.017433
vt 0.643674 0.017433
vt 0.625000 0.000000
vt 0.643674 0.000000
vt 0.625000 0.017433
vt 0.856672 0.000000
vt 0.875000 0.000000
vt 0.875000 0.017433
vt 0.856672 0.017433
vt 0.643674 0.017433
vt 0.875000 0.227729
vt 0.875000 0.250000
vt 0.856672 0.250000
vt 0.643674 0.227729
vt 0.856672 0.227729
vt 0.643674 0.250000
vt 0.625000 0.250000
vt 0.625000 0.227729
vn 0.000000 0.000000 1.000000
vn 0.000000 0.000000 1.000000
vn 0.000000 0.000000 1.000000
vn 0.000000 0.000000 1.000000
vn 0.000000 1.000000 0.000000
vn 0.000000 1.000000 0.000000
vn 0.000000 1.000000 0.000000
vn 0.000000 1.000000 0.000000
vn 0.000000 0.000000 -1.000000
vn 0.000000 0.000000 -1.000000
vn 0.000000 0.000000 -1.000000
vn 0.000000 0.000000 -1.000000
vn 0.000000 -1.000000 0.000000
vn 0.000000 -1.000000 0.000000
vn 0.000000 -1.000000 0.000000
vn 0.000000 -1.000000 0.000000
vn 1.000000 0.000000 0.000000
vn 1.000000 0.000000 0.000000
vn 1.000000 0.000000 0.000000
vn 1.000000 0.000000 0.000000
vn -1.000000 0.000000 0.000000
vn -1.000000 0.000000 0.000000
vn -1.000000 0.000000 0.000000
vn -1.000000 0.000000 0.000000
vn 0.000000 1.000000 0.000000
vn 0.000000 1.000000 0.000000
vn 0.000000 1.000000 0.000000
vn 0.000000 1.000000 0.000000
vn -1.000000 0.000000 0.000000
vn -1.000000 0.000000 0.000000
vn -1.000000 0.000000 0.000000
vn -1.000000 0.000000 0.000000
vn 0.000000 -1.000000 0.000000
vn 0.000000 -1.000000 0.000000
vn 0.000000 -1.000000 0.000000
vn 0.000000 -1.000000 0.000000
vn 1.000000 0.000000 0.000000
vn 1.000000 0.000000 0.000000
vn 1.000000 0.000000 0.000000
vn 1.000000 0.000000 0.000000
vn 0.000000 0.000000 1.000000
vn 0.000000 0.000000 1.000000
vn 0.000000 0.000000 1.000000
vn 0.000000 0.000000 1.000000
vn -1.000000 0.000000 0.000000
vn -1.000000 0.000000 0.000000
vn -1.000000 0.000000 0.000000
vn -1.000000 0.000000 0.000000
vn -1.000000 0.000000 0.000000
vn -1.000000 0.000000 0.000000
vn -1.000000 0.000000 0.000000
vn -1.000000 0.000000 0.000000
vn 0.000000 0.000000 -1.000000
vn 0.000000 0.000000 -1.000000
vn 0.000000 0.000000 -1.000000
vn 0.000000 0.000000 -1.000000
vn 1.000000 0.000000 0.000000
vn 1.000000 0.000000 0.000000
vn 1.000000 0.000000 0.000000
vn 1.000000 0.000000 0.000000
vn 1.000000 0.000000 0.000000
vn 1.000000 0.000000 0.000000
vn 1.000000 0.000000 0.000000
vn 1.000000 0.000000 0.000000
vn 1.000000 0.000000 0.000000
vn 1.000000 0.000000 0.000000
vn 1.000000 0.000000 0.000000
vn 1.000000 0.000000 0.000000
vn 0.000000 -1.000000 0.000000
vn 0.000000 -1.000000 0.000000
vn 0.000000 0.000000 1.000000
vn 0.000000 0.000000 1.000000
vn 0.000000 -1.000000 0.000000
vn 0.000000 -1.000000 0.000000
vn 0.000000 0.000000 -1.000000
vn 0.000000 0.000000 -1.000000
vn 0.000000 1.000000 0.000000
vn 0.000000 1.000000 0.000000
vn 0.000000 1.000000 0.000000
vn 0.000000 1.000000 0.000000
vn 0.000000 0.000000 -1.000000
vn 0.000000 0.000000 -1.000000
vn 0.000000 1.000000 0.000000
vn 0.000000 1.000000 0.000000
vn 0.000000 -1.000000 0.000000
vn 0.000000 -1.000000 0.000000
vn 0.000000 -1.000000 0.000000
vn 0.000000 -1.000000 0.000000
vn 0.000000 1.000000 0.000000
vn 0.000000 1.000000 0.000000
vn 0.000000 0.000000 1.000000
vn 0.000000 0.000000 1.000000
vn 0.000000 0.000000 1.000000
vn 0.000000 0.000000 1.000000
vn 0.000000 0.000000 1.000000
vn 0.000000 0.000000 1.000000
vn 0.000000 0.000000 -1.000000
vn 0.000000 0.000000 -1.000000
vn 0.000000 0.000000 -1.000000
vn 0.000000 0.000000 -1.000000
s 1
g pCube120
usemtl initialShadingGroup
f 1/1/1 2/2/2 25/41/3 26/42/4
s 2
f 3/3/5 4/4/6 16/29/7 13/24/8
s 3
f 29/46/9 30/47/10 8/8/11 7/7/12
s 4
f 14/26/13 15/27/14 2/10/15 1/9/16
s 5
f 34/51/17 33/52/18 35/58/19 36/53/20
s 6
f 14/25/21 1/1/22 26/42/23 27/43/24
s 2
f 10/18/25 9/15/26 6/6/27 5/5/28
s 6
f 7/13/29 11/19/30 28/44/31 29/45/32
s 4
f 7/7/33 8/8/34 12/21/35 11/20/36
s 5
f 38/57/37 37/54/38 39/55/39 40/56/40
s 6
f 11/19/30 14/25/21 27/43/24 28/44/31
s 4
f 11/20/36 12/21/35 15/27/14 14/26/13
s 5
f 35/58/19 33/52/18 37/54/38 38/57/37
s 2
f 13/24/8 16/29/7 9/15/26 10/18/25
s 1
f 18/32/41 17/31/42 4/4/43 3/3/44
s 6
f 19/33/45 18/32/46 3/3/47 13/23/48
f 20/34/49 19/33/45 13/23/48 10/17/50
f 21/35/51 20/34/49 10/17/50 5/14/52
s 3
f 5/5/53 6/6/54 22/37/55 21/36/56
s 5
f 42/61/57 41/63/58 43/59/59 44/60/60
f 46/64/61 45/62/62 41/63/58 42/61/57
f 47/66/63 45/62/62 46/64/61 48/65/64
s 1
f 26/42/4 25/41/3 17/31/42 18/32/41
s 6
f 27/43/24 26/42/23 18/32/46 19/33/45
f 28/44/31 27/43/24 19/33/45 20/34/49
f 29/45/32 28/44/31 20/34/49 21/35/51
s 3
f 21/36/56 22/37/55 30/47/10 29/46/9
s 5
f 41/63/58 38/57/37 40/56/40 43/59/59
s off
f 24/40/65 32/50/66 31/49/67 23/39/68
s 5
f 36/53/20 35/58/19 45/62/62 47/66/63
s 4
f 2/2/15 15/28/14 33/52/69 34/51/70
s 1
f 25/41/3 2/2/2 34/51/71 36/53/72
s 4
f 12/22/35 8/11/34 39/55/73 37/54/74
s 3
f 8/11/11 30/48/10 40/56/75 39/55/76
s 4
f 15/28/14 12/22/35 37/54/74 33/52/69
s off
f 31/49/77 32/50/78 35/58/79 38/57/80
s 3
f 22/38/55 6/12/54 44/60/81 43/59/82
s 2
f 6/12/27 9/16/26 42/61/83 44/60/84
s off
f 24/40/85 23/39/86 41/63/87 45/62/88
s 2
f 9/16/26 16/30/7 46/64/89 42/61/83
f 16/30/7 4/4/6 48/65/90 46/64/89
s 1
f 4/4/43 17/31/42 47/66/91 48/65/92
s off
f 23/39/93 31/49/94 38/57/95 41/63/96
s 3
f 30/48/10 22/38/55 43/59/82 40/56/75
s off
f 32/50/97 24/40/98 45/62/99 35/58/100
s 1
f 17/31/42 25/41/3 36/53/72 47/66/91
