# This file uses centimeters as units for non-parametric coordinates.

mtllib NamePlate.mtl
g default
v -4.129204 1.673476 0.726001
v -4.112528 1.673476 0.726001
v -4.142719 1.816117 0.726001
v -4.126044 1.816117 0.726001
v -4.142719 1.816117 0.210507
v -4.126044 1.816117 0.210507
v -4.129204 1.673476 0.210507
v -4.112528 1.673476 0.210507
v -4.112528 1.693381 0.210507
v -4.129204 1.693381 0.210507
v -4.129204 1.693381 0.726001
v -4.112528 1.693381 0.726001
v -4.154181 1.673476 0.210507
v -4.154181 1.673476 0.726001
v -4.154181 1.693381 0.726001
v -4.154181 1.693381 0.210507
vt 0.375000 0.000000
vt 0.625000 0.000000
vt 0.375000 0.250000
vt 0.625000 0.250000
vt 0.375000 0.500000
vt 0.625000 0.500000
vt 0.375000 0.750000
vt 0.625000 0.750000
vt 0.375000 1.000000
vt 0.625000 1.000000
vt 0.875000 0.000000
vt 0.875000 0.250000
vt 0.125000 0.000000
vt 0.125000 0.250000
vt 0.625000 0.683993
vt 0.875000 0.066007
vt 0.125000 0.066007
vt 0.375000 0.683993
vt 0.375000 0.066007
vt 0.625000 0.066007
vt 0.125000 0.000000
vt 0.375000 0.000000
vt 0.375000 0.066007
vt 0.125000 0.066007
vn 0.000000 0.000000 1.000000
vn 0.000000 0.000000 1.000000
vn 0.000000 0.000000 1.000000
vn 0.000000 0.000000 1.000000
vn 0.000000 1.000000 0.000000
vn 0.000000 1.000000 0.000000
vn 0.000000 1.000000 0.000000
vn 0.000000 1.000000 0.000000
vn 0.000000 0.000000 -1.000000
vn 0.000000 0.000000 -1.000000
vn 0.000000 0.000000 -1.000000
vn 0.000000 0.000000 -1.000000
vn 0.000000 -1.000000 0.000000
vn 0.000000 -1.000000 0.000000
vn 0.000000 -1.000000 0.000000
vn 0.000000 -1.000000 0.000000
vn 0.995541 0.094331 0.000000
vn 0.995541 0.094331 0.000000
vn 0.993991 0.109458 0.000000
vn 0.993991 0.109458 0.000000
vn -0.993991 -0.109458 0.000000
vn -0.993991 -0.109458 0.000000
vn -0.993991 -0.109458 0.000000
vn -0.993991 -0.109458 0.000000
vn 0.000000 0.000000 -1.000000
vn 0.000000 0.000000 -1.000000
vn -1.000000 0.000000 0.000000
vn -1.000000 0.000000 0.000000
vn -1.000000 0.000000 0.000000
vn -1.000000 0.000000 0.000000
vn 0.000000 0.000000 1.000000
vn 0.000000 0.000000 1.000000
vn 1.000000 0.000000 0.000000
vn 1.000000 0.000000 0.000000
vn 0.000000 -1.000000 0.000000
vn 0.000000 -1.000000 0.000000
vn 0.000000 0.000000 1.000000
vn 0.000000 0.000000 1.000000
vn 0.000000 1.000000 0.000000
vn 0.000000 1.000000 0.000000
vn 0.000000 1.000000 0.000000
vn 0.000000 1.000000 0.000000
vn 0.000000 0.000000 -1.000000
vn 0.000000 0.000000 -1.000000
s 1
g pCube108
usemtl initialShadingGroup
f 11/19/1 12/20/2 4/4/3 3/3/4
s off
f 3/3/5 4/4/6 6/6/7 5/5/8
s 2
f 5/5/9 6/6/10 9/15/11 10/18/12
s 3
f 7/7/13 8/8/14 2/10/15 1/9/16
s 4
f 12/20/17 9/16/18 6/12/19 4/4/20
s off
f 10/17/21 11/19/22 3/3/23 5/14/24
s 2
f 10/18/12 9/15/11 8/8/25 7/7/26
s off
f 13/21/27 14/22/28 15/23/29 16/24/30
s 1
f 1/1/31 2/2/32 12/20/2 11/19/1
s 4
f 2/2/33 8/11/34 9/16/18 12/20/17
s 3
f 7/13/13 1/1/16 14/22/35 13/21/36
s 1
f 1/1/31 11/19/1 15/23/37 14/22/38
s off
f 11/19/39 10/17/40 16/24/41 15/23/42
s 2
f 10/17/12 7/13/26 13/21/43 16/24/44
