# This file uses centimeters as units for non-parametric coordinates.

mtllib Wall1.mtl
g default
v 11.801972 -0.072865 11.454847
v 12.362901 -0.072865 11.454847
v 11.801972 7.920271 11.454847
v 12.362901 7.920271 11.454847
v 11.801972 7.920271 -11.454847
v 12.362901 7.920271 -11.454847
v 11.801972 -0.072865 -11.454847
v 12.362901 -0.072865 -11.454847
v 11.801972 5.701145 -11.454847
v 11.801972 5.701145 11.454847
v 12.362901 5.701145 11.454847
v 12.362901 5.701145 -11.454847
v 11.801972 5.298453 -11.454847
v 11.801972 5.298453 11.454847
v 12.362901 5.298453 11.454847
v 12.362901 5.298453 -11.454847
vt 0.341443 0.049217
vt 0.658557 0.049217
vt 0.341443 0.274608
vt 0.658557 0.274608
vt 0.341443 0.500000
vt 0.658557 0.500000
vt 0.341443 0.725392
vt 0.658557 0.725392
vt 0.341443 0.950783
vt 0.658557 0.950783
vt 0.975671 0.049217
vt 0.975671 0.274608
vt 0.024329 0.049217
vt 0.024329 0.274608
vt 0.024329 0.208378
vt 0.341443 0.566231
vt 0.341443 0.208378
vt 0.658557 0.208378
vt 0.658557 0.566231
vt 0.975671 0.208378
vt 0.024329 0.198759
vt 0.341443 0.575850
vt 0.341443 0.198759
vt 0.658557 0.198759
vt 0.658557 0.575850
vt 0.975671 0.198759
vn 0.000000 0.000000 1.000000
vn 0.000000 0.000000 1.000000
vn 0.000000 0.000000 1.000000
vn 0.000000 0.000000 1.000000
vn 0.000000 1.000000 0.000000
vn 0.000000 1.000000 0.000000
vn 0.000000 1.000000 0.000000
vn 0.000000 1.000000 0.000000
vn 0.000000 0.000000 -1.000000
vn 0.000000 0.000000 -1.000000
vn 0.000000 0.000000 -1.000000
vn 0.000000 0.000000 -1.000000
vn 0.000000 -1.000000 0.000000
vn 0.000000 -1.000000 0.000000
vn 0.000000 -1.000000 0.000000
vn 0.000000 -1.000000 0.000000
vn 1.000000 0.000000 0.000000
vn 1.000000 0.000000 0.000000
vn 1.000000 0.000000 0.000000
vn 1.000000 0.000000 0.000000
vn -1.000000 0.000000 0.000000
vn -1.000000 0.000000 0.000000
vn -1.000000 0.000000 0.000000
vn -1.000000 0.000000 0.000000
vn -1.000000 0.000000 0.000000
vn -1.000000 0.000000 0.000000
vn 0.000000 0.000000 1.000000
vn 0.000000 0.000000 1.000000
vn 1.000000 0.000000 0.000000
vn 1.000000 0.000000 0.000000
vn 0.000000 0.000000 -1.000000
vn 0.000000 0.000000 -1.000000
vn -1.000000 0.000000 0.000000
vn -1.000000 0.000000 0.000000
vn 0.000000 0.000000 1.000000
vn 0.000000 0.000000 1.000000
vn 1.000000 0.000000 0.000000
vn 1.000000 0.000000 0.000000
vn 0.000000 0.000000 -1.000000
vn 0.000000 0.000000 -1.000000
s 1
g pCube186
usemtl initialShadingGroup
f 10/17/1 11/18/2 4/4/3 3/3/4
s off
f 3/3/5 4/4/6 6/6/7 5/5/8
s 2
f 5/5/9 6/6/10 12/19/11 9/16/12
s off
f 7/7/13 8/8/14 2/10/15 1/9/16
s 3
f 11/18/17 12/20/18 6/12/19 4/4/20
s 4
f 9/15/21 10/17/22 3/3/23 5/14/24
f 13/21/25 14/23/26 10/17/22 9/15/21
s 1
f 14/23/27 15/24/28 11/18/2 10/17/1
s 3
f 15/24/29 16/26/30 12/20/18 11/18/17
s 2
f 9/16/12 12/19/11 16/25/31 13/22/32
s 4
f 7/13/33 1/1/34 14/23/26 13/21/25
s 1
f 1/1/35 2/2/36 15/24/28 14/23/27
s 3
f 2/2/37 8/11/38 16/26/30 15/24/29
s 2
f 13/22/32 16/25/31 8/8/39 7/7/40
