# This file uses centimeters as units for non-parametric coordinates.

mtllib Floor2Textured.mtl
g default
v -8.773219 -0.169324 8.463114
v -2.161201 -0.169324 8.463114
v -8.773219 0.169324 8.463114
v -2.161201 0.169324 8.463114
v -8.773219 0.169324 1.454893
v -2.161201 0.169324 1.454893
v -8.773219 -0.169324 1.454893
v -2.161201 -0.169324 1.454893
v -8.066986 0.169324 8.463114
v -8.066986 0.169324 1.454893
v -8.066986 -0.169324 1.454893
v -8.066986 -0.169324 8.463114
v -7.088096 0.169324 8.463114
v -7.088096 0.169324 1.454893
v -7.088096 -0.169324 1.454893
v -7.088096 -0.169324 8.463114
v -6.222142 0.169324 8.463114
v -6.222142 0.169324 1.454893
v -6.222142 -0.169324 1.454893
v -6.222142 -0.169324 8.463114
v -5.264654 -0.169324 8.463114
v -5.264654 0.169324 8.463114
v -5.264654 0.169324 1.454893
v -5.264654 -0.169324 1.454893
v -4.288839 0.169324 8.463114
v -4.288839 0.169324 1.454893
v -4.288839 -0.169324 1.454893
v -4.288839 -0.169324 8.463114
v -3.250701 0.169324 1.454893
v -3.250701 -0.169324 1.454893
v -3.250701 -0.169324 8.463114
v -3.250701 0.169324 8.463114
v -8.773219 0.169324 2.347041
v -8.773219 -0.169324 2.347041
v -8.066986 -0.169324 2.347041
v -7.088096 -0.169324 2.347041
v -6.222142 -0.169324 2.347041
v -5.264654 -0.169324 2.347041
v -4.288839 -0.169324 2.347041
v -3.250701 -0.169324 2.347041
v -2.161201 -0.169324 2.347041
v -2.161201 0.169324 2.347041
v -3.250701 0.169324 2.347041
v -4.288839 0.169324 2.347041
v -5.264654 0.169324 2.347041
v -6.222142 0.169324 2.347041
v -7.088096 0.169324 2.347041
v -8.066986 0.169324 2.347041
v -8.773219 0.169324 3.407975
v -8.773219 -0.169324 3.407975
v -8.066986 -0.169324 3.407975
v -7.088096 -0.169324 3.407975
v -6.222142 -0.169324 3.407975
v -5.264654 -0.169324 3.407975
v -4.288839 -0.169324 3.407975
v -3.250701 -0.169324 3.407975
v -2.161201 -0.169324 3.407975
v -2.161201 0.169324 3.407975
v -3.250701 0.169324 3.407975
v -4.288839 0.169324 3.407975
v -5.264654 0.169324 3.407975
v -6.222142 0.169324 3.407975
v -7.088096 0.169324 3.407975
v -8.066986 0.169324 3.407975
v -8.773219 0.169324 4.354731
v -8.773219 -0.169324 4.354731
v -8.066986 -0.169324 4.354731
v -7.088096 -0.169324 4.354731
v -6.222142 -0.169324 4.354731
v -5.264654 -0.169324 4.354731
v -4.288839 -0.169324 4.354731
v -3.250701 -0.169324 4.354731
v -2.161201 -0.169324 4.354731
v -2.161201 0.169324 4.354731
v -3.250701 0.169324 4.354731
v -4.288839 0.169324 4.354731
v -5.264654 0.169324 4.354731
v -6.222142 0.169324 4.354731
v -7.088096 0.169324 4.354731
v -8.066986 0.169324 4.354731
v -8.773219 0.169324 5.334023
v -8.773219 -0.169324 5.334023
v -8.066986 -0.169324 5.334023
v -7.088096 -0.169324 5.334023
v -6.222142 -0.169324 5.334023
v -5.264654 -0.169324 5.334023
v -4.288839 -0.169324 5.334023
v -3.250701 -0.169324 5.334023
v -2.161201 -0.169324 5.334023
v -2.161201 0.169324 5.334023
v -3.250701 0.169324 5.334023
v -4.288839 0.169324 5.334023
v -5.264654 0.169324 5.334023
v -6.222142 0.169324 5.334023
v -7.088096 0.169324 5.334023
v -8.066986 0.169324 5.334023
v -8.773219 0.169324 6.268180
v -8.773219 -0.169324 6.268180
v -8.066986 -0.169324 6.268180
v -7.088096 -0.169324 6.268180
v -6.222142 -0.169324 6.268180
v -5.264654 -0.169324 6.268180
v -4.288839 -0.169324 6.268180
v -3.250701 -0.169324 6.268180
v -2.161201 -0.169324 6.268180
v -2.161201 0.169324 6.268180
v -3.250701 0.169324 6.268180
v -4.288839 0.169324 6.268180
v -5.264654 0.169324 6.268180
v -6.222142 0.169324 6.268180
v -7.088096 0.169324 6.268180
v -8.066986 0.169324 6.268180
v -8.773219 0.169324 7.342451
v -8.773219 -0.169324 7.342451
v -8.066986 -0.169324 7.342451
v -7.088096 -0.169324 7.342451
v -6.222142 -0.169324 7.342451
v -5.264654 -0.169324 7.342451
v -4.288839 -0.169324 7.342451
v -3.250701 -0.169324 7.342451
v -2.161201 -0.169324 7.342451
v -2.161201 0.169324 7.342451
v -3.250701 0.169324 7.342451
v -4.288839 0.169324 7.342451
v -5.264654 0.169324 7.342451
v -6.222142 0.169324 7.342451
v -7.088096 0.169324 7.342451
v -8.066986 0.169324 7.342451
vt 0.375000 0.000000
vt 0.625000 0.000000
vt 0.375000 0.250000
vt 0.625000 0.250000
vt 0.375000 0.500000
vt 0.625000 0.500000
vt 0.375000 0.750000
vt 0.625000 0.750000
vt 0.375000 1.000000
vt 0.625000 1.000000
vt 0.875000 0.000000
vt 0.875000 0.250000
vt 0.125000 0.000000
vt 0.125000 0.250000
vt 0.401703 0.250000
vt 0.401703 0.500000
vt 0.401703 0.750000
vt 0.401703 0.000000
vt 0.401703 1.000000
vt 0.438714 0.250000
vt 0.438714 0.500000
vt 0.438714 0.750000
vt 0.438714 0.000000
vt 0.438714 1.000000
vt 0.471456 0.250000
vt 0.471456 0.500000
vt 0.471456 0.750000
vt 0.471456 0.000000
vt 0.471456 1.000000
vt 0.507659 0.000000
vt 0.507659 1.000000
vt 0.507659 0.250000
vt 0.507659 0.500000
vt 0.507659 0.750000
vt 0.540531 0.250000
vt 0.540531 0.500000
vt 0.540531 0.750000
vt 0.540531 0.000000
vt 0.540531 1.000000
vt 0.577147 0.500000
vt 0.577147 0.750000
vt 0.577147 0.000000
vt 0.577147 1.000000
vt 0.577147 0.250000
vt 0.156825 0.250000
vt 0.375000 0.468175
vt 0.156825 0.000000
vt 0.375000 0.781825
vt 0.401703 0.781825
vt 0.438714 0.781825
vt 0.471456 0.781825
vt 0.507659 0.781825
vt 0.540531 0.781825
vt 0.577147 0.781825
vt 0.625000 0.781825
vt 0.843175 0.000000
vt 0.625000 0.468175
vt 0.843175 0.250000
vt 0.577147 0.468175
vt 0.540531 0.468175
vt 0.507659 0.468175
vt 0.471456 0.468175
vt 0.438714 0.468175
vt 0.401703 0.468175
vt 0.194671 0.250000
vt 0.375000 0.430329
vt 0.194671 0.000000
vt 0.375000 0.819671
vt 0.401703 0.819671
vt 0.438714 0.819671
vt 0.471456 0.819671
vt 0.507659 0.819671
vt 0.540531 0.819671
vt 0.577147 0.819671
vt 0.625000 0.819671
vt 0.805329 0.000000
vt 0.625000 0.430329
vt 0.805329 0.250000
vt 0.577147 0.430329
vt 0.540531 0.430329
vt 0.507659 0.430329
vt 0.471456 0.430329
vt 0.438714 0.430329
vt 0.401703 0.430329
vt 0.228444 0.250000
vt 0.375000 0.396556
vt 0.228444 0.000000
vt 0.375000 0.853444
vt 0.401703 0.853444
vt 0.438714 0.853444
vt 0.471456 0.853444
vt 0.507659 0.853444
vt 0.540531 0.853444
vt 0.577147 0.853444
vt 0.625000 0.853444
vt 0.771556 0.000000
vt 0.625000 0.396556
vt 0.771556 0.250000
vt 0.577147 0.396556
vt 0.540531 0.396556
vt 0.507659 0.396556
vt 0.471456 0.396556
vt 0.438714 0.396556
vt 0.401703 0.396556
vt 0.263378 0.250000
vt 0.375000 0.361622
vt 0.263378 0.000000
vt 0.375000 0.888378
vt 0.401703 0.888378
vt 0.438714 0.888378
vt 0.471456 0.888378
vt 0.507659 0.888378
vt 0.540531 0.888378
vt 0.577147 0.888378
vt 0.625000 0.888378
vt 0.736622 0.000000
vt 0.625000 0.361622
vt 0.736622 0.250000
vt 0.577147 0.361622
vt 0.540531 0.361622
vt 0.507659 0.361622
vt 0.471456 0.361622
vt 0.438714 0.361622
vt 0.401703 0.361622
vt 0.296701 0.250000
vt 0.375000 0.328299
vt 0.296701 0.000000
vt 0.375000 0.921701
vt 0.401703 0.921701
vt 0.438714 0.921701
vt 0.471456 0.921701
vt 0.507659 0.921701
vt 0.540531 0.921701
vt 0.577147 0.921701
vt 0.625000 0.921701
vt 0.703299 0.000000
vt 0.625000 0.328299
vt 0.703299 0.250000
vt 0.577147 0.328299
vt 0.540531 0.328299
vt 0.507659 0.328299
vt 0.471456 0.328299
vt 0.438714 0.328299
vt 0.401703 0.328299
vt 0.331492 0.250000
vt 0.375000 0.293508
vt 0.331492 0.000000
vt 0.375000 0.956492
vt 0.401703 0.956492
vt 0.438714 0.956492
vt 0.471456 0.956492
vt 0.507659 0.956492
vt 0.540531 0.956492
vt 0.577147 0.956492
vt 0.625000 0.956492
vt 0.668508 0.000000
vt 0.625000 0.293508
vt 0.668508 0.250000
vt 0.577147 0.293508
vt 0.540531 0.293508
vt 0.507659 0.293508
vt 0.471456 0.293508
vt 0.438714 0.293508
vt 0.401703 0.293508
vn 0.000000 0.000000 1.000000
vn 0.000000 0.000000 1.000000
vn 0.000000 0.000000 1.000000
vn 0.000000 0.000000 1.000000
vn 0.000000 1.000000 0.000000
vn 0.000000 1.000000 0.000000
vn 0.000000 1.000000 0.000000
vn 0.000000 1.000000 0.000000
vn 0.000000 0.000000 -1.000000
vn 0.000000 0.000000 -1.000000
vn 0.000000 0.000000 -1.000000
vn 0.000000 0.000000 -1.000000
vn 0.000000 -1.000000 0.000000
vn 0.000000 -1.000000 0.000000
vn 0.000000 -1.000000 0.000000
vn 0.000000 -1.000000 0.000000
vn 1.000000 0.000000 0.000000
vn 1.000000 0.000000 0.000000
vn 1.000000 0.000000 0.000000
vn 1.000000 0.000000 0.000000
vn -1.000000 0.000000 0.000000
vn -1.000000 0.000000 0.000000
vn -1.000000 0.000000 0.000000
vn -1.000000 0.000000 0.000000
vn 0.000000 1.000000 0.000000
vn 0.000000 1.000000 0.000000
vn 0.000000 0.000000 -1.000000
vn 0.000000 0.000000 -1.000000
vn 0.000000 -1.000000 0.000000
vn 0.000000 -1.000000 0.000000
vn 0.000000 0.000000 1.000000
vn 0.000000 0.000000 1.000000
vn 0.000000 1.000000 0.000000
vn 0.000000 1.000000 0.000000
vn 0.000000 0.000000 -1.000000
vn 0.000000 0.000000 -1.000000
vn 0.000000 -1.000000 0.000000
vn 0.000000 -1.000000 0.000000
vn 0.000000 0.000000 1.000000
vn 0.000000 0.000000 1.000000
vn 0.000000 1.000000 0.000000
vn 0.000000 1.000000 0.000000
vn 0.000000 0.000000 -1.000000
vn 0.000000 0.000000 -1.000000
vn 0.000000 -1.000000 0.000000
vn 0.000000 -1.000000 0.000000
vn 0.000000 0.000000 1.000000
vn 0.000000 0.000000 1.000000
vn 0.000000 0.000000 1.000000
vn 0.000000 0.000000 1.000000
vn 0.000000 1.000000 0.000000
vn 0.000000 1.000000 0.000000
vn 0.000000 0.000000 -1.000000
vn 0.000000 0.000000 -1.000000
vn 0.000000 -1.000000 0.000000
vn 0.000000 -1.000000 0.000000
vn 0.000000 1.000000 0.000000
vn 0.000000 1.000000 0.000000
vn 0.000000 0.000000 -1.000000
vn 0.000000 0.000000 -1.000000
vn 0.000000 -1.000000 0.000000
vn 0.000000 -1.000000 0.000000
vn 0.000000 0.000000 1.000000
vn 0.000000 0.000000 1.000000
vn 0.000000 0.000000 -1.000000
vn 0.000000 0.000000 -1.000000
vn 0.000000 -1.000000 0.000000
vn 0.000000 -1.000000 0.000000
vn 0.000000 0.000000 1.000000
vn 0.000000 0.000000 1.000000
vn 0.000000 1.000000 0.000000
vn 0.000000 1.000000 0.000000
vn -1.000000 0.000000 0.000000
vn -1.000000 0.000000 0.000000
vn -1.000000 0.000000 0.000000
vn -1.000000 0.000000 0.000000
vn 0.000000 -1.000000 0.000000
vn 0.000000 -1.000000 0.000000
vn 0.000000 -1.000000 0.000000
vn 0.000000 -1.000000 0.000000
vn 0.000000 -1.000000 0.000000
vn 0.000000 -1.000000 0.000000
vn 0.000000 -1.000000 0.000000
vn 0.000000 -1.000000 0.000000
vn 0.000000 -1.000000 0.000000
vn 0.000000 -1.000000 0.000000
vn 0.000000 -1.000000 0.000000
vn 0.000000 -1.000000 0.000000
vn 0.000000 -1.000000 0.000000
vn 0.000000 -1.000000 0.000000
vn 0.000000 -1.000000 0.000000
vn 0.000000 -1.000000 0.000000
vn 1.000000 0.000000 0.000000
vn 1.000000 0.000000 0.000000
vn 1.000000 0.000000 0.000000
vn 1.000000 0.000000 0.000000
vn 0.000000 1.000000 0.000000
vn 0.000000 1.000000 0.000000
vn 0.000000 1.000000 0.000000
vn 0.000000 1.000000 0.000000
vn 0.000000 1.000000 0.000000
vn 0.000000 1.000000 0.000000
vn 0.000000 1.000000 0.000000
vn 0.000000 1.000000 0.000000
vn 0.000000 1.000000 0.000000
vn 0.000000 1.000000 0.000000
vn 0.000000 1.000000 0.000000
vn 0.000000 1.000000 0.000000
vn 0.000000 1.000000 0.000000
vn 0.000000 1.000000 0.000000
vn 0.000000 1.000000 0.000000
vn 0.000000 1.000000 0.000000
vn -1.000000 0.000000 0.000000
vn -1.000000 0.000000 0.000000
vn 0.000000 -1.000000 0.000000
vn 0.000000 -1.000000 0.000000
vn 0.000000 -1.000000 0.000000
vn 0.000000 -1.000000 0.000000
vn 0.000000 -1.000000 0.000000
vn 0.000000 -1.000000 0.000000
vn 0.000000 -1.000000 0.000000
vn 0.000000 -1.000000 0.000000
vn 1.000000 0.000000 0.000000
vn 1.000000 0.000000 0.000000
vn 0.000000 1.000000 0.000000
vn 0.000000 1.000000 0.000000
vn 0.000000 1.000000 0.000000
vn 0.000000 1.000000 0.000000
vn 0.000000 1.000000 0.000000
vn 0.000000 1.000000 0.000000
vn 0.000000 1.000000 0.000000
vn 0.000000 1.000000 0.000000
vn -1.000000 0.000000 0.000000
vn -1.000000 0.000000 0.000000
vn 0.000000 -1.000000 0.000000
vn 0.000000 -1.000000 0.000000
vn 0.000000 -1.000000 0.000000
vn 0.000000 -1.000000 0.000000
vn 0.000000 -1.000000 0.000000
vn 0.000000 -1.000000 0.000000
vn 0.000000 -1.000000 0.000000
vn 0.000000 -1.000000 0.000000
vn 1.000000 0.000000 0.000000
vn 1.000000 0.000000 0.000000
vn 0.000000 1.000000 0.000000
vn 0.000000 1.000000 0.000000
vn 0.000000 1.000000 0.000000
vn 0.000000 1.000000 0.000000
vn 0.000000 1.000000 0.000000
vn 0.000000 1.000000 0.000000
vn 0.000000 1.000000 0.000000
vn 0.000000 1.000000 0.000000
vn -1.000000 0.000000 0.000000
vn -1.000000 0.000000 0.000000
vn 0.000000 -1.000000 0.000000
vn 0.000000 -1.000000 0.000000
vn 0.000000 -1.000000 0.000000
vn 0.000000 -1.000000 0.000000
vn 0.000000 -1.000000 0.000000
vn 0.000000 -1.000000 0.000000
vn 0.000000 -1.000000 0.000000
vn 0.000000 -1.000000 0.000000
vn 1.000000 0.000000 0.000000
vn 1.000000 0.000000 0.000000
vn 0.000000 1.000000 0.000000
vn 0.000000 1.000000 0.000000
vn 0.000000 1.000000 0.000000
vn 0.000000 1.000000 0.000000
vn 0.000000 1.000000 0.000000
vn 0.000000 1.000000 0.000000
vn 0.000000 1.000000 0.000000
vn 0.000000 1.000000 0.000000
vn -1.000000 0.000000 0.000000
vn -1.000000 0.000000 0.000000
vn 0.000000 -1.000000 0.000000
vn 0.000000 -1.000000 0.000000
vn 0.000000 -1.000000 0.000000
vn 0.000000 -1.000000 0.000000
vn 0.000000 -1.000000 0.000000
vn 0.000000 -1.000000 0.000000
vn 0.000000 -1.000000 0.000000
vn 0.000000 -1.000000 0.000000
vn 1.000000 0.000000 0.000000
vn 1.000000 0.000000 0.000000
vn 0.000000 1.000000 0.000000
vn 0.000000 1.000000 0.000000
vn 0.000000 1.000000 0.000000
vn 0.000000 1.000000 0.000000
vn 0.000000 1.000000 0.000000
vn 0.000000 1.000000 0.000000
vn 0.000000 1.000000 0.000000
vn 0.000000 1.000000 0.000000
s 1
g pCube183
usemtl initialShadingGroup
f 1/1/1 12/18/2 9/15/3 3/3/4
s 2
f 3/3/5 9/15/6 128/164/7 113/146/8
s 3
f 5/5/9 10/16/10 11/17/11 7/7/12
s 4
f 114/148/13 115/149/14 12/19/15 1/9/16
s 5
f 2/2/17 121/156/18 122/158/19 4/4/20
s 6
f 114/147/21 1/1/22 3/3/23 113/145/24
s 2
f 9/15/6 13/20/25 127/163/26 128/164/7
s 3
f 11/17/11 10/16/10 14/21/27 15/22/28
s 4
f 12/19/15 115/149/14 116/150/29 16/24/30
s 1
f 9/15/3 12/18/2 16/23/31 13/20/32
s 2
f 13/20/25 17/25/33 126/162/34 127/163/26
s 3
f 15/22/28 14/21/27 18/26/35 19/27/36
s 4
f 16/24/30 116/150/29 117/151/37 20/29/38
s 1
f 13/20/32 16/23/31 20/28/39 17/25/40
s 2
f 17/25/33 22/32/41 125/161/42 126/162/34
s 3
f 19/27/36 18/26/35 23/33/43 24/34/44
s 4
f 20/29/38 117/151/37 118/152/45 21/31/46
s 1
f 17/25/40 20/28/39 21/30/47 22/32/48
f 22/32/48 21/30/47 28/38/49 25/35/50
s 2
f 125/161/42 22/32/41 25/35/51 124/160/52
s 3
f 24/34/44 23/33/43 26/36/53 27/37/54
s 4
f 21/31/46 118/152/45 119/153/55 28/39/56
s 2
f 124/160/52 25/35/51 32/44/57 123/159/58
s 3
f 27/37/54 26/36/53 29/40/59 30/41/60
s 4
f 28/39/56 119/153/55 120/154/61 31/43/62
s 1
f 25/35/50 28/38/49 31/42/63 32/44/64
s 3
f 30/41/60 29/40/59 6/6/65 8/8/66
s 4
f 31/43/62 120/154/61 121/155/67 2/10/68
s 1
f 32/44/64 31/42/63 2/2/69 4/4/70
s 2
f 122/157/71 123/159/58 32/44/57 4/4/72
s 6
f 7/13/73 34/47/74 33/45/75 5/14/76
s 4
f 7/7/77 11/17/78 35/49/79 34/48/80
f 36/50/81 35/49/79 11/17/78 15/22/82
f 37/51/83 36/50/81 15/22/82 19/27/84
f 38/52/85 37/51/83 19/27/84 24/34/86
f 39/53/87 38/52/85 24/34/86 27/37/88
f 40/54/89 39/53/87 27/37/88 30/41/90
f 40/54/89 30/41/90 8/8/91 41/55/92
s 5
f 42/58/93 41/56/94 8/11/95 6/12/96
s 2
f 29/40/97 43/59/98 42/57/99 6/6/100
f 26/36/101 44/60/102 43/59/98 29/40/97
f 23/33/103 45/61/104 44/60/102 26/36/101
f 46/62/105 45/61/104 23/33/103 18/26/106
f 47/63/107 46/62/105 18/26/106 14/21/108
f 48/64/109 47/63/107 14/21/108 10/16/110
f 33/46/111 48/64/109 10/16/110 5/5/112
s 6
f 34/47/74 50/67/113 49/65/114 33/45/75
s 4
f 34/48/80 35/49/79 51/69/115 50/68/116
f 52/70/117 51/69/115 35/49/79 36/50/81
f 53/71/118 52/70/117 36/50/81 37/51/83
f 54/72/119 53/71/118 37/51/83 38/52/85
f 55/73/120 54/72/119 38/52/85 39/53/87
f 56/74/121 55/73/120 39/53/87 40/54/89
f 56/74/121 40/54/89 41/55/92 57/75/122
s 5
f 58/78/123 57/76/124 41/56/94 42/58/93
s 2
f 42/57/99 43/59/98 59/79/125 58/77/126
f 44/60/102 60/80/127 59/79/125 43/59/98
f 45/61/104 61/81/128 60/80/127 44/60/102
f 62/82/129 61/81/128 45/61/104 46/62/105
f 63/83/130 62/82/129 46/62/105 47/63/107
f 64/84/131 63/83/130 47/63/107 48/64/109
f 49/66/132 64/84/131 48/64/109 33/46/111
s 6
f 50/67/113 66/87/133 65/85/134 49/65/114
s 4
f 50/68/116 51/69/115 67/89/135 66/88/136
f 68/90/137 67/89/135 51/69/115 52/70/117
f 69/91/138 68/90/137 52/70/117 53/71/118
f 70/92/139 69/91/138 53/71/118 54/72/119
f 71/93/140 70/92/139 54/72/119 55/73/120
f 72/94/141 71/93/140 55/73/120 56/74/121
f 72/94/141 56/74/121 57/75/122 73/95/142
s 5
f 74/98/143 73/96/144 57/76/124 58/78/123
s 2
f 58/77/126 59/79/125 75/99/145 74/97/146
f 60/80/127 76/100/147 75/99/145 59/79/125
f 61/81/128 77/101/148 76/100/147 60/80/127
f 78/102/149 77/101/148 61/81/128 62/82/129
f 79/103/150 78/102/149 62/82/129 63/83/130
f 80/104/151 79/103/150 63/83/130 64/84/131
f 65/86/152 80/104/151 64/84/131 49/66/132
s 6
f 66/87/133 82/107/153 81/105/154 65/85/134
s 4
f 66/88/136 67/89/135 83/109/155 82/108/156
f 84/110/157 83/109/155 67/89/135 68/90/137
f 85/111/158 84/110/157 68/90/137 69/91/138
f 86/112/159 85/111/158 69/91/138 70/92/139
f 87/113/160 86/112/159 70/92/139 71/93/140
f 88/114/161 87/113/160 71/93/140 72/94/141
f 88/114/161 72/94/141 73/95/142 89/115/162
s 5
f 90/118/163 89/116/164 73/96/144 74/98/143
s 2
f 74/97/146 75/99/145 91/119/165 90/117/166
f 76/100/147 92/120/167 91/119/165 75/99/145
f 77/101/148 93/121/168 92/120/167 76/100/147
f 94/122/169 93/121/168 77/101/148 78/102/149
f 95/123/170 94/122/169 78/102/149 79/103/150
f 96/124/171 95/123/170 79/103/150 80/104/151
f 81/106/172 96/124/171 80/104/151 65/86/152
s 6
f 82/107/153 98/127/173 97/125/174 81/105/154
s 4
f 82/108/156 83/109/155 99/129/175 98/128/176
f 100/130/177 99/129/175 83/109/155 84/110/157
f 101/131/178 100/130/177 84/110/157 85/111/158
f 102/132/179 101/131/178 85/111/158 86/112/159
f 103/133/180 102/132/179 86/112/159 87/113/160
f 104/134/181 103/133/180 87/113/160 88/114/161
f 104/134/181 88/114/161 89/115/162 105/135/182
s 5
f 106/138/183 105/136/184 89/116/164 90/118/163
s 2
f 90/117/166 91/119/165 107/139/185 106/137/186
f 92/120/167 108/140/187 107/139/185 91/119/165
f 93/121/168 109/141/188 108/140/187 92/120/167
f 110/142/189 109/141/188 93/121/168 94/122/169
f 111/143/190 110/142/189 94/122/169 95/123/170
f 112/144/191 111/143/190 95/123/170 96/124/171
f 97/126/192 112/144/191 96/124/171 81/106/172
s 6
f 98/127/173 114/147/21 113/145/24 97/125/174
s 4
f 98/128/176 99/129/175 115/149/14 114/148/13
f 116/150/29 115/149/14 99/129/175 100/130/177
f 117/151/37 116/150/29 100/130/177 101/131/178
f 118/152/45 117/151/37 101/131/178 102/132/179
f 119/153/55 118/152/45 102/132/179 103/133/180
f 120/154/61 119/153/55 103/133/180 104/134/181
f 120/154/61 104/134/181 105/135/182 121/155/67
s 5
f 122/158/19 121/156/18 105/136/184 106/138/183
s 2
f 106/137/186 107/139/185 123/159/58 122/157/71
f 108/140/187 124/160/52 123/159/58 107/139/185
f 109/141/188 125/161/42 124/160/52 108/140/187
f 126/162/34 125/161/42 109/141/188 110/142/189
f 127/163/26 126/162/34 110/142/189 111/143/190
f 128/164/7 127/163/26 111/143/190 112/144/191
f 113/146/8 128/164/7 112/144/191 97/126/192
