# This file uses centimeters as units for non-parametric coordinates.

mtllib Table.mtl
g default
v -3.564778 -0.036929 10.422778
v -1.624494 -0.036929 10.422778
v -3.564778 1.301853 10.422778
v -1.624494 1.301853 10.422778
v -3.564778 1.301853 7.132537
v -1.624494 1.301853 7.132537
v -3.564778 -0.036929 7.132537
v -1.624494 -0.036929 7.132537
v -1.624494 1.161377 10.422778
v -3.564778 1.161377 10.422778
v -3.564778 1.161377 7.132537
v -1.624494 1.161377 7.132537
v -1.624494 1.161377 10.422778
v -3.564778 1.161377 10.422778
v -1.624494 1.301853 10.422778
v -3.564778 1.301853 10.422778
v -3.564778 1.161377 7.132537
v -3.564778 1.301853 7.132537
v -1.624494 1.301853 7.132537
v -1.624494 1.161377 7.132537
v -3.564778 1.301853 10.351994
v -3.564778 1.301853 10.351994
v -3.564778 1.161377 10.351994
v -3.564778 1.161377 10.351994
v -3.564778 -0.036929 10.351994
v -1.624494 -0.036929 10.351994
v -1.624494 1.161377 10.351994
v -1.624494 1.161377 10.351994
v -1.624494 1.301853 10.351994
v -1.624494 1.301853 10.351994
v -3.564778 1.301853 7.188535
v -3.564778 1.301853 7.188535
v -3.564778 1.161377 7.188535
v -3.564778 1.161377 7.188535
v -3.564778 -0.036929 7.188535
v -1.624494 -0.036929 7.188535
v -1.624494 1.161377 7.188535
v -1.624494 1.161377 7.188535
v -1.624494 1.301853 7.188535
v -1.624494 1.301853 7.188535
v -3.471652 1.301853 10.351994
v -3.471652 1.301853 10.422778
v -3.471652 1.301853 10.422778
v -3.471652 1.161377 10.422778
v -3.471652 1.161377 10.422778
v -3.471652 -0.036929 10.422778
v -3.471652 -0.036929 10.351994
v -3.471652 -0.036929 7.188535
v -3.471652 -0.036929 7.132537
v -3.471652 1.161377 7.132537
v -3.471652 1.161377 7.132537
v -3.471652 1.301853 7.132537
v -3.471652 1.301853 7.132537
v -3.471652 1.301853 7.188535
v -1.704632 1.301853 10.422778
v -1.704632 1.301853 10.351994
v -1.704632 1.301853 7.188535
v -1.704632 1.301853 7.132537
v -1.704632 1.301853 7.132537
v -1.704632 1.161377 7.132537
v -1.704632 1.161377 7.132537
v -1.704632 -0.036929 7.132537
v -1.704632 -0.036929 7.188535
v -1.704632 -0.036929 10.351994
v -1.704632 -0.036929 10.422778
v -1.704632 1.161377 10.422778
v -1.704632 1.161377 10.422778
v -1.704632 1.301853 10.422778
v -1.704632 1.161377 10.613802
v -3.471652 1.161377 10.613802
v -1.704632 1.301853 10.613802
v -3.471652 1.301853 10.613802
v -3.660290 1.161377 10.518291
v -3.755802 1.161377 10.351994
v -3.660290 1.301853 10.518291
v -3.755802 1.301853 10.351994
v -3.471652 1.301853 6.941514
v -1.704632 1.301853 6.941514
v -1.704632 1.161377 6.941514
v -3.471652 1.161377 6.941514
v -1.433473 1.161377 10.351994
v -1.528983 1.161377 10.518291
v -1.433473 1.301853 10.351994
v -1.528983 1.301853 10.518291
v -3.755802 1.161377 7.188535
v -3.755802 1.301853 7.188535
v -1.433473 1.161377 7.188535
v -1.433473 1.301853 7.188535
v -3.660290 1.161377 7.037025
v -3.660290 1.301853 7.037025
v -1.528983 1.161377 7.037025
v -1.528983 1.301853 7.037025
v -3.471652 1.331071 7.188535
v -3.471652 1.331071 10.351994
v -1.704632 1.331071 10.351994
v -1.704632 1.331071 7.188535
vt 0.375000 0.000000
vt 0.625000 0.000000
vt 0.375000 0.250000
vt 0.625000 0.250000
vt 0.375000 0.500000
vt 0.625000 0.500000
vt 0.375000 0.750000
vt 0.625000 0.750000
vt 0.375000 1.000000
vt 0.625000 1.000000
vt 0.875000 0.000000
vt 0.875000 0.250000
vt 0.125000 0.000000
vt 0.125000 0.250000
vt 0.625000 0.223768
vt 0.375000 0.223768
vt 0.125000 0.223768
vt 0.375000 0.526232
vt 0.625000 0.526232
vt 0.875000 0.223768
vt 0.375000 0.223768
vt 0.625000 0.223768
vt 0.625000 0.250000
vt 0.375000 0.250000
vt 0.125000 0.223768
vt 0.125000 0.250000
vt 0.375000 0.500000
vt 0.625000 0.500000
vt 0.625000 0.526232
vt 0.375000 0.526232
vt 0.875000 0.223768
vt 0.875000 0.250000
vt 0.369622 0.250000
vt 0.375000 0.255378
vt 0.369622 0.250000
vt 0.369622 0.223768
vt 0.369622 0.223768
vt 0.369622 0.000000
vt 0.375000 0.994622
vt 0.625000 0.994622
vt 0.630378 0.000000
vt 0.630378 0.223768
vt 0.630378 0.223768
vt 0.630378 0.250000
vt 0.625000 0.255378
vt 0.630378 0.250000
vt 0.129255 0.250000
vt 0.375000 0.495745
vt 0.129255 0.250000
vt 0.129255 0.223768
vt 0.129255 0.223768
vt 0.129255 0.000000
vt 0.375000 0.754255
vt 0.625000 0.754255
vt 0.870745 0.000000
vt 0.870745 0.223768
vt 0.870745 0.223768
vt 0.870745 0.250000
vt 0.625000 0.495745
vt 0.870745 0.250000
vt 0.386999 0.255378
vt 0.386999 0.250000
vt 0.386999 0.250000
vt 0.386999 0.223768
vt 0.386999 0.223768
vt 0.386999 0.000000
vt 0.386999 1.000000
vt 0.386999 0.994622
vt 0.386999 0.754255
vt 0.386999 0.750000
vt 0.386999 0.526232
vt 0.386999 0.526232
vt 0.386999 0.500000
vt 0.386999 0.500000
vt 0.386999 0.495745
vt 0.614675 0.250000
vt 0.614675 0.255378
vt 0.614675 0.495745
vt 0.614675 0.500000
vt 0.614675 0.500000
vt 0.614675 0.526232
vt 0.614675 0.526232
vt 0.614675 0.750000
vt 0.614675 0.754255
vt 0.614675 0.994622
vt 0.614675 0.000000
vt 0.614675 1.000000
vt 0.614675 0.223768
vt 0.614675 0.223768
vt 0.614675 0.250000
vt 0.386999 0.223768
vt 0.614675 0.223768
vt 0.614675 0.250000
vt 0.386999 0.250000
vt 0.369622 0.223768
vt 0.375000 0.223768
vt 0.375000 0.250000
vt 0.369622 0.250000
vt 0.386999 0.500000
vt 0.614675 0.500000
vt 0.614675 0.526232
vt 0.386999 0.526232
vt 0.625000 0.223768
vt 0.630378 0.223768
vt 0.630378 0.250000
vt 0.625000 0.250000
vt 0.129255 0.223768
vt 0.129255 0.250000
vt 0.870745 0.223768
vt 0.870745 0.250000
vt 0.125000 0.223768
vt 0.125000 0.250000
vt 0.875000 0.223768
vt 0.875000 0.250000
vt 0.375000 0.500000
vt 0.375000 0.526232
vt 0.625000 0.500000
vt 0.625000 0.526232
vt 0.386999 0.495745
vt 0.386999 0.255378
vt 0.614675 0.255378
vt 0.614675 0.495745
vn 0.000000 0.000000 1.000000
vn 0.000000 0.000000 1.000000
vn 0.000000 0.000000 1.000000
vn 0.000000 0.000000 1.000000
vn 0.000000 1.000000 0.000000
vn 0.000000 1.000000 0.000000
vn 0.000000 1.000000 0.000000
vn 0.000000 1.000000 0.000000
vn 0.000000 0.000000 -1.000000
vn 0.000000 0.000000 -1.000000
vn 0.000000 0.000000 -1.000000
vn 0.000000 0.000000 -1.000000
vn 0.000000 -1.000000 0.000000
vn 0.000000 -1.000000 0.000000
vn 0.000000 -1.000000 0.000000
vn 0.000000 -1.000000 0.000000
vn 1.000000 0.000000 0.000000
vn 1.000000 0.000000 0.000000
vn 1.000000 0.000000 0.000000
vn 1.000000 0.000000 0.000000
vn -1.000000 0.000000 0.000000
vn -1.000000 0.000000 0.000000
vn -1.000000 0.000000 0.000000
vn -1.000000 0.000000 0.000000
vn -0.048780 0.000000 0.998810
vn 0.049106 0.000000 0.998794
vn 0.049106 0.000000 0.998794
vn -0.048780 0.000000 0.998810
vn -0.999589 0.000000 0.028673
vn -0.867151 0.000000 0.498045
vn -0.867151 0.000000 0.498045
vn -0.999589 0.000000 0.028673
vn -0.048780 0.000000 -0.998810
vn 0.049106 0.000000 -0.998794
vn 0.049106 0.000000 -0.998794
vn -0.048780 0.000000 -0.998810
vn 0.867155 0.000000 0.498038
vn 0.999589 0.000000 0.028672
vn 0.999589 0.000000 0.028672
vn 0.867155 0.000000 0.498038
vn 0.000000 0.000000 0.000000
vn 0.000000 0.000000 0.000000
vn 0.000000 0.000000 0.000000
vn 0.000000 0.000000 0.000000
vn 0.000000 0.000000 0.000000
vn 0.000000 0.000000 0.000000
vn 0.000000 0.000000 0.000000
vn 0.000000 0.000000 0.000000
vn 0.000000 0.000000 0.000000
vn 0.000000 0.000000 0.000000
vn 0.000000 0.000000 0.000000
vn 0.000000 0.000000 0.000000
vn 0.000000 0.000000 0.000000
vn 0.000000 0.000000 0.000000
vn 0.000000 0.000000 0.000000
vn 0.000000 0.000000 0.000000
vn 0.000000 0.000000 0.000000
vn 0.000000 0.000000 0.000000
vn 0.000000 0.000000 0.000000
vn 0.000000 0.000000 0.000000
vn 0.000000 0.000000 0.000000
vn 0.000000 0.000000 0.000000
vn 0.000000 0.000000 0.000000
vn 0.000000 0.000000 0.000000
vn 0.000000 0.000000 0.000000
vn 0.000000 0.000000 0.000000
vn 0.000000 0.000000 0.000000
vn 0.000000 0.000000 0.000000
vn 0.000000 0.000000 0.000000
vn 0.000000 0.000000 0.000000
vn 0.000000 0.000000 0.000000
vn 0.000000 0.000000 0.000000
vn 0.000000 0.000000 0.000000
vn 0.000000 0.000000 0.000000
vn 0.000000 0.000000 0.000000
vn 0.000000 0.000000 0.000000
vn -0.999585 0.000000 -0.028800
vn -0.999585 0.000000 -0.028800
vn 0.000000 0.000000 0.000000
vn 0.000000 0.000000 0.000000
vn 0.000000 0.000000 0.000000
vn 0.000000 0.000000 0.000000
vn -1.000000 0.000000 0.000000
vn -1.000000 0.000000 0.000000
vn 0.000000 -1.000000 0.000000
vn 0.000000 -1.000000 0.000000
vn 1.000000 0.000000 0.000000
vn 1.000000 0.000000 0.000000
vn 0.000000 0.000000 0.000000
vn 0.000000 0.000000 0.000000
vn 0.000000 0.000000 0.000000
vn 0.000000 0.000000 0.000000
vn 0.999585 0.000000 -0.028800
vn 0.999585 0.000000 -0.028800
vn 0.000000 0.000000 0.000000
vn 0.000000 0.000000 0.000000
vn 0.000000 0.000000 0.000000
vn 0.000000 0.000000 0.000000
vn 0.000000 1.000000 0.000000
vn 0.000000 1.000000 0.000000
vn 0.000000 1.000000 0.000000
vn 0.000000 1.000000 0.000000
vn 0.000000 0.000000 0.000000
vn 0.000000 0.000000 0.000000
vn 0.000000 0.000000 0.000000
vn 0.000000 0.000000 0.000000
vn -0.845938 0.000000 -0.533281
vn -0.845938 0.000000 -0.533281
vn 0.000000 0.000000 0.000000
vn 0.000000 0.000000 0.000000
vn 0.000000 0.000000 0.000000
vn 0.000000 0.000000 0.000000
vn -1.000000 0.000000 0.000000
vn -1.000000 0.000000 0.000000
vn 0.000000 -1.000000 0.000000
vn 0.000000 -1.000000 0.000000
vn 1.000000 0.000000 0.000000
vn 1.000000 0.000000 0.000000
vn 0.000000 0.000000 0.000000
vn 0.000000 0.000000 0.000000
vn 0.000000 0.000000 0.000000
vn 0.000000 0.000000 0.000000
vn 0.845943 0.000000 -0.533274
vn 0.845943 0.000000 -0.533274
vn 0.000000 0.000000 0.000000
vn 0.000000 0.000000 0.000000
vn 0.000000 0.000000 0.000000
vn 0.000000 0.000000 0.000000
vn 0.000000 1.000000 0.000000
vn 0.000000 1.000000 0.000000
vn 0.000000 1.000000 0.000000
vn 0.000000 1.000000 0.000000
vn 0.000000 1.000000 0.000000
vn 0.000000 1.000000 0.000000
vn 0.000000 0.000000 0.000000
vn 0.000000 0.000000 0.000000
vn 0.000000 0.000000 0.000000
vn 0.000000 0.000000 0.000000
vn -0.451719 0.000000 0.892161
vn -0.451719 0.000000 0.892161
vn 0.000000 0.000000 0.000000
vn 0.000000 0.000000 0.000000
vn 0.000000 0.000000 0.000000
vn 0.000000 0.000000 0.000000
vn 0.000000 0.000000 1.000000
vn 0.000000 0.000000 1.000000
vn 0.000000 -1.000000 0.000000
vn 0.000000 -1.000000 0.000000
vn 0.000000 -1.000000 0.000000
vn 0.000000 -1.000000 0.000000
vn 0.000000 0.000000 -1.000000
vn 0.000000 0.000000 -1.000000
vn 0.000000 0.000000 0.000000
vn 0.000000 0.000000 0.000000
vn 0.000000 0.000000 0.000000
vn 0.000000 0.000000 0.000000
vn -0.451718 0.000000 -0.892161
vn -0.451718 0.000000 -0.892161
vn 0.000000 0.000000 0.000000
vn 0.000000 0.000000 0.000000
vn 0.000000 0.000000 0.000000
vn 0.000000 0.000000 0.000000
vn 0.000000 1.000000 0.000000
vn 0.000000 1.000000 0.000000
vn 0.000000 1.000000 0.000000
vn 0.000000 1.000000 0.000000
vn 0.000000 1.000000 0.000000
vn 0.000000 1.000000 0.000000
vn 0.000000 0.000000 0.000000
vn 0.000000 0.000000 0.000000
vn 0.000000 0.000000 0.000000
vn 0.000000 0.000000 0.000000
vn 0.477706 0.000000 -0.878520
vn 0.477706 0.000000 -0.878520
vn 0.000000 0.000000 0.000000
vn 0.000000 0.000000 0.000000
vn 0.000000 0.000000 0.000000
vn 0.000000 0.000000 0.000000
vn 0.000000 0.000000 -1.000000
vn 0.000000 0.000000 -1.000000
vn 0.000000 -1.000000 0.000000
vn 0.000000 -1.000000 0.000000
vn 0.000000 -1.000000 0.000000
vn 0.000000 -1.000000 0.000000
vn 0.000000 0.000000 1.000000
vn 0.000000 0.000000 1.000000
vn 0.000000 0.000000 0.000000
vn 0.000000 0.000000 0.000000
vn 0.000000 0.000000 0.000000
vn 0.000000 0.000000 0.000000
vn 0.477706 0.000000 0.878520
vn 0.477706 0.000000 0.878520
vn 0.000000 0.000000 0.000000
vn 0.000000 0.000000 0.000000
vn 0.000000 0.000000 0.000000
vn 0.000000 0.000000 0.000000
vn 0.000000 -1.000000 0.000000
vn 0.000000 -1.000000 0.000000
vn 0.000000 -1.000000 0.000000
vn 0.000000 -1.000000 0.000000
vn 0.000000 1.000000 0.000000
vn 0.000000 1.000000 0.000000
vn 0.000000 1.000000 0.000000
vn 0.000000 1.000000 0.000000
vn 0.000000 -1.000000 0.000000
vn 0.000000 -1.000000 0.000000
vn 0.000000 -1.000000 0.000001
vn 0.000000 -1.000000 -0.000000
vn 0.000000 1.000000 0.000000
vn 0.000000 1.000000 0.000000
vn 0.000000 1.000000 0.000000
vn 0.000000 1.000000 0.000000
vn 0.000000 1.000000 0.000000
vn 0.000000 1.000000 0.000000
vn 0.000000 1.000000 0.000000
vn 0.000000 1.000000 0.000000
vn 0.000000 -1.000000 0.000000
vn 0.000000 -1.000000 0.000000
vn 0.000000 -1.000000 0.000000
vn 0.000000 -1.000000 0.000000
vn 0.000000 -1.000000 0.000000
vn 0.000000 -1.000000 0.000000
vn 0.000000 -1.000000 0.000000
vn 0.000000 -1.000000 0.000000
vn 0.000000 1.000000 0.000000
vn 0.000000 1.000000 0.000000
vn 0.000000 1.000000 0.000000
vn 0.000000 1.000000 0.000000
vn 0.000000 -1.000000 -0.000000
vn 0.000000 -1.000000 -0.000000
vn 0.000000 1.000000 0.000000
vn 0.000000 1.000000 0.000000
vn 0.000000 -1.000000 0.000000
vn 0.000000 -1.000000 0.000000
vn 0.000000 1.000000 0.000000
vn 0.000000 1.000000 0.000000
vn 0.000000 -1.000000 0.000000
vn 0.000000 -1.000000 0.000000
vn 0.000000 1.000000 0.000000
vn 0.000000 1.000000 0.000000
vn 0.000000 -1.000000 0.000000
vn 0.000000 -1.000000 0.000000
vn 0.000000 1.000000 0.000000
vn 0.000000 1.000000 0.000000
vn -1.000000 0.000000 0.000000
vn -1.000000 0.000000 0.000000
vn -1.000000 0.000000 0.000000
vn -1.000000 0.000000 0.000000
vn 0.000000 0.000000 1.000000
vn 0.000000 0.000000 1.000000
vn 0.000000 0.000000 1.000000
vn 0.000000 0.000000 1.000000
vn 1.000000 0.000000 0.000000
vn 1.000000 0.000000 0.000000
vn 1.000000 0.000000 0.000000
vn 1.000000 0.000000 0.000000
vn 0.000000 0.000000 -1.000000
vn 0.000000 0.000000 -1.000000
vn 0.000000 0.000000 -1.000000
vn 0.000000 0.000000 -1.000000
s 1
g pCube84
usemtl initialShadingGroup
f 46/66/1 65/86/2 66/88/3 45/65/4
s 2
f 42/62/5 55/76/6 56/77/7 41/61/8
s 3
f 50/71/9 61/82/10 62/83/11 49/70/12
s 4
f 47/68/13 64/85/14 65/87/15 46/67/16
s 5
f 2/2/17 26/41/18 27/42/19 9/15/20
s 6
f 25/38/21 1/1/22 10/16/23 24/37/24
s 7
f 70/91/25 69/92/26 71/93/27 72/94/28
s 8
f 74/95/29 73/96/30 75/97/31 76/98/32
s 9
f 77/99/33 78/100/34 79/101/35 80/102/36
s 10
f 82/103/37 81/104/38 83/105/39 84/106/40
s off
f 45/65/41 66/88/42 67/89/43 44/64/44
f 68/90/45 55/76/46 42/62/47 43/63/48
f 24/37/49 10/16/50 14/21/51 23/36/52
f 3/3/53 21/33/54 22/35/55 16/24/56
f 53/74/57 58/79/58 59/80/59 52/73/60
f 61/82/61 50/71/62 51/72/63 60/81/64
f 9/15/65 27/42/66 28/43/67 13/22/68
f 30/46/69 4/4/70 15/23/71 29/44/72
f 21/33/73 31/47/74 32/49/75 22/35/76
s 8
f 85/107/77 74/95/29 76/98/32 86/108/78
s off
f 34/51/79 24/37/80 23/36/81 33/50/82
s 6
f 35/52/83 25/38/21 24/37/24 34/51/84
s 4
f 48/69/85 63/84/86 64/85/14 47/68/13
s 5
f 27/42/19 26/41/18 36/55/87 37/56/88
s off
f 28/43/89 27/42/90 37/56/91 38/57/92
s 10
f 83/105/39 81/104/38 87/109/93 88/110/94
s off
f 40/60/95 30/46/96 29/44/97 39/58/98
f 93/119/99 94/120/100 95/121/101 96/122/102
f 31/47/103 5/14/104 18/26/105 32/49/106
s 8
f 89/111/107 85/107/77 86/108/78 90/112/108
s off
f 11/17/109 34/51/110 33/50/111 17/25/112
s 6
f 7/13/113 35/52/83 34/51/84 11/17/114
s 4
f 49/70/115 62/83/116 63/84/86 48/69/85
s 5
f 37/56/88 36/55/87 8/11/117 12/20/118
s off
f 38/57/119 37/56/120 12/20/121 20/31/122
s 10
f 88/110/94 87/109/93 91/113/123 92/114/124
s off
f 6/12/125 40/60/126 39/58/127 19/32/128
s 2
f 54/75/129 57/78/130 58/79/131 53/74/132
f 3/3/133 42/62/5 41/61/8 21/34/134
s off
f 43/63/135 42/62/136 3/3/137 16/24/138
s 7
f 73/96/139 70/91/25 72/94/28 75/97/140
s off
f 10/16/141 45/65/142 44/64/143 14/21/144
s 1
f 1/1/145 46/66/1 45/65/4 10/16/146
s 4
f 25/39/147 47/68/13 46/67/16 1/9/148
f 35/53/149 48/69/85 47/68/13 25/39/147
f 7/7/150 49/70/115 48/69/85 35/53/149
s 3
f 11/18/151 50/71/9 49/70/12 7/7/152
s off
f 51/72/153 50/71/154 11/18/155 17/30/156
s 9
f 90/115/157 77/99/33 80/102/36 89/116/158
s off
f 5/5/159 53/74/160 52/73/161 18/27/162
s 2
f 31/48/163 54/75/129 53/74/132 5/5/164
f 21/34/134 41/61/8 54/75/129 31/48/163
f 55/76/6 4/4/165 30/45/166 56/77/7
f 57/78/130 56/77/7 30/45/166 40/59/167
f 58/79/131 57/78/130 40/59/167 6/6/168
s off
f 59/80/169 58/79/170 6/6/171 19/28/172
s 9
f 79/101/35 78/100/34 92/117/173 91/118/174
s off
f 12/19/175 61/82/176 60/81/177 20/29/178
s 3
f 62/83/11 61/82/10 12/19/179 8/8/180
s 4
f 63/84/86 62/83/116 8/8/181 36/54/182
f 64/85/14 63/84/86 36/54/182 26/40/183
f 65/87/15 64/85/14 26/40/183 2/10/184
s 1
f 66/88/3 65/86/2 2/2/185 9/15/186
s off
f 67/89/187 66/88/188 9/15/189 13/22/190
s 7
f 71/93/27 69/92/26 82/103/191 84/106/192
s off
f 4/4/193 55/76/194 68/90/195 15/23/196
s 12
f 44/64/197 67/89/198 69/92/199 70/91/200
s 13
f 68/90/201 43/63/202 72/94/203 71/93/204
s 12
f 23/36/205 14/21/206 73/96/207 74/95/208
s 13
f 16/24/209 22/35/210 76/98/211 75/97/212
f 52/73/213 59/80/214 78/100/215 77/99/216
s 12
f 60/81/217 51/72/218 80/102/219 79/101/220
f 13/22/221 28/43/222 81/104/223 82/103/224
s 13
f 29/44/225 15/23/226 84/106/227 83/105/228
s 12
f 33/50/229 23/36/205 74/95/208 85/107/230
s 13
f 22/35/210 32/49/231 86/108/232 76/98/211
s 12
f 28/43/222 38/57/233 87/109/234 81/104/223
s 13
f 39/58/235 29/44/225 83/105/228 88/110/236
s 12
f 17/25/237 33/50/229 85/107/230 89/111/238
s 13
f 32/49/231 18/26/239 90/112/240 86/108/232
s 12
f 38/57/233 20/31/241 91/113/242 87/109/234
s 13
f 19/32/243 39/58/235 88/110/236 92/114/244
s 12
f 14/21/206 44/64/197 70/91/200 73/96/207
s 13
f 43/63/202 16/24/209 75/97/212 72/94/203
f 18/27/239 52/73/213 77/99/216 90/115/240
s 12
f 51/72/218 17/30/237 89/116/238 80/102/219
s 13
f 59/80/214 19/28/243 92/117/244 78/100/215
s 12
f 20/29/241 60/81/217 79/101/220 91/118/242
f 67/89/198 13/22/221 82/103/224 69/92/199
s 13
f 15/23/226 68/90/201 71/93/204 84/106/227
s off
f 54/75/245 41/61/246 94/120/247 93/119/248
f 41/61/249 56/77/250 95/121/251 94/120/252
f 56/77/253 57/78/254 96/122/255 95/121/256
f 57/78/257 54/75/258 93/119/259 96/122/260
