# This file uses centimeters as units for non-parametric coordinates.

mtllib Pen.mtl
g default
v -0.042895 1.109418 0.581776
v -0.044023 1.109418 0.579561
v -0.045780 1.109418 0.577804
v -0.047995 1.109418 0.576675
v -0.050449 1.109418 0.576287
v -0.052904 1.109418 0.576675
v -0.055119 1.109418 0.577804
v -0.056876 1.109418 0.579561
v -0.058004 1.109418 0.581776
v -0.058393 1.109418 0.584230
v -0.058004 1.109418 0.586685
v -0.056876 1.109418 0.588899
v -0.055119 1.109418 0.590657
v -0.052904 1.109418 0.591785
v -0.050449 1.109418 0.592174
v -0.047995 1.109418 0.591785
v -0.045780 1.109418 0.590657
v -0.044023 1.109418 0.588899
v -0.042895 1.109418 0.586685
v -0.042506 1.109418 0.584230
v -0.042895 1.298454 0.581776
v -0.044023 1.298454 0.579561
v -0.045780 1.298454 0.577804
v -0.047995 1.298454 0.576675
v -0.050449 1.298454 0.576287
v -0.052904 1.298454 0.576675
v -0.055119 1.298454 0.577804
v -0.056876 1.298454 0.579561
v -0.058004 1.298454 0.581776
v -0.058393 1.298454 0.584230
v -0.058004 1.298454 0.586685
v -0.056876 1.298454 0.588899
v -0.055119 1.298454 0.590657
v -0.052904 1.298454 0.591785
v -0.050449 1.298454 0.592174
v -0.047995 1.298454 0.591785
v -0.045780 1.298454 0.590657
v -0.044023 1.298454 0.588899
v -0.042895 1.298454 0.586685
v -0.042506 1.298454 0.584230
v -0.050449 1.109418 0.584230
v -0.050449 1.298454 0.584230
v -0.042506 1.238531 0.584230
v -0.042895 1.238531 0.586685
v -0.044023 1.238531 0.588899
v -0.045780 1.238531 0.590657
v -0.047995 1.238531 0.591785
v -0.050449 1.238531 0.592174
v -0.052904 1.238531 0.591785
v -0.055119 1.238531 0.590657
v -0.056876 1.238531 0.588899
v -0.058004 1.238531 0.586685
v -0.058393 1.238531 0.584230
v -0.058004 1.238531 0.581776
v -0.056876 1.238531 0.579561
v -0.055119 1.238531 0.577804
v -0.052904 1.238531 0.576675
v -0.050449 1.238531 0.576287
v -0.047995 1.238531 0.576675
v -0.045780 1.238531 0.577804
v -0.044023 1.238531 0.579561
v -0.042895 1.238531 0.581776
v -0.041671 1.238531 0.584230
v -0.042101 1.238531 0.586943
v -0.041671 1.298454 0.584230
v -0.042101 1.298454 0.586943
v -0.043348 1.238531 0.589390
v -0.043348 1.298454 0.589390
v -0.045290 1.238531 0.591332
v -0.045290 1.298454 0.591332
v -0.047737 1.238531 0.592579
v -0.047737 1.298454 0.592579
v -0.050449 1.238531 0.593008
v -0.050449 1.298454 0.593008
v -0.053162 1.238531 0.592579
v -0.053162 1.298454 0.592579
v -0.055609 1.238531 0.591332
v -0.055609 1.298454 0.591332
v -0.057551 1.238531 0.589390
v -0.057551 1.298454 0.589390
v -0.058798 1.238531 0.586943
v -0.058798 1.298454 0.586943
v -0.059227 1.238531 0.584230
v -0.059227 1.298454 0.584230
v -0.058798 1.238531 0.581518
v -0.058798 1.298454 0.581518
v -0.057551 1.238531 0.579071
v -0.057551 1.298454 0.579071
v -0.055609 1.238531 0.577129
v -0.055609 1.298454 0.577129
v -0.053162 1.238531 0.575882
v -0.053162 1.298454 0.575882
v -0.050449 1.238531 0.575452
v -0.050449 1.298454 0.575452
v -0.047737 1.238531 0.575882
v -0.047737 1.298454 0.575882
v -0.045290 1.238531 0.577129
v -0.045290 1.298454 0.577129
v -0.043348 1.238531 0.579071
v -0.043348 1.298454 0.579071
v -0.042101 1.238531 0.581518
v -0.042101 1.298454 0.581518
v -0.041031 1.238531 0.591707
v -0.042973 1.238531 0.593648
v -0.041031 1.298454 0.591707
v -0.042973 1.298454 0.593648
v -0.043348 1.215472 0.589390
v -0.045290 1.215472 0.591332
v -0.041031 1.215472 0.591707
v -0.042973 1.215472 0.593648
vt 0.648603 0.107966
vt 0.626409 0.064408
vt 0.591842 0.029841
vt 0.548284 0.007647
vt 0.500000 -0.000000
vt 0.451716 0.007647
vt 0.408159 0.029841
vt 0.373591 0.064409
vt 0.351397 0.107966
vt 0.343750 0.156250
vt 0.351397 0.204534
vt 0.373591 0.248091
vt 0.408159 0.282659
vt 0.451716 0.304853
vt 0.500000 0.312500
vt 0.548284 0.304853
vt 0.591841 0.282659
vt 0.626409 0.248091
vt 0.648603 0.204534
vt 0.656250 0.156250
vt 0.375000 0.312500
vt 0.387500 0.312500
vt 0.400000 0.312500
vt 0.412500 0.312500
vt 0.425000 0.312500
vt 0.437500 0.312500
vt 0.450000 0.312500
vt 0.462500 0.312500
vt 0.475000 0.312500
vt 0.487500 0.312500
vt 0.500000 0.312500
vt 0.512500 0.312500
vt 0.525000 0.312500
vt 0.537500 0.312500
vt 0.550000 0.312500
vt 0.562500 0.312500
vt 0.575000 0.312500
vt 0.587500 0.312500
vt 0.600000 0.312500
vt 0.612500 0.312500
vt 0.625000 0.312500
vt 0.375000 0.688440
vt 0.387500 0.688440
vt 0.400000 0.688440
vt 0.412500 0.688440
vt 0.425000 0.688440
vt 0.437500 0.688440
vt 0.450000 0.688440
vt 0.462500 0.688440
vt 0.475000 0.688440
vt 0.487500 0.688440
vt 0.500000 0.688440
vt 0.512500 0.688440
vt 0.525000 0.688440
vt 0.537500 0.688440
vt 0.550000 0.688440
vt 0.562500 0.688440
vt 0.575000 0.688440
vt 0.587500 0.688440
vt 0.600000 0.688440
vt 0.612500 0.688440
vt 0.625000 0.688440
vt 0.648603 0.795466
vt 0.626409 0.751908
vt 0.591842 0.717341
vt 0.548284 0.695147
vt 0.500000 0.687500
vt 0.451716 0.695147
vt 0.408159 0.717341
vt 0.373591 0.751909
vt 0.351397 0.795466
vt 0.343750 0.843750
vt 0.351397 0.892034
vt 0.373591 0.935591
vt 0.408159 0.970159
vt 0.451716 0.992353
vt 0.500000 1.000000
vt 0.548284 0.992353
vt 0.591841 0.970159
vt 0.626409 0.935591
vt 0.648603 0.892034
vt 0.656250 0.843750
vt 0.500000 0.150000
vt 0.500000 0.837500
vt 0.612500 0.569268
vt 0.600000 0.569268
vt 0.587500 0.569268
vt 0.575000 0.569268
vt 0.562500 0.569268
vt 0.550000 0.569268
vt 0.537500 0.569268
vt 0.525000 0.569268
vt 0.512500 0.569268
vt 0.500000 0.569268
vt 0.487500 0.569268
vt 0.475000 0.569268
vt 0.462500 0.569268
vt 0.450000 0.569268
vt 0.437500 0.569268
vt 0.425000 0.569268
vt 0.412500 0.569268
vt 0.400000 0.569268
vt 0.387500 0.569268
vt 0.625000 0.569268
vt 0.375000 0.569268
vt 0.600000 0.569268
vt 0.612500 0.569268
vt 0.612500 0.688440
vt 0.600000 0.688440
vt 0.587500 0.569268
vt 0.587500 0.688440
vt 0.575000 0.569268
vt 0.575000 0.688440
vt 0.562500 0.569268
vt 0.562500 0.688440
vt 0.550000 0.569268
vt 0.550000 0.688440
vt 0.537500 0.569268
vt 0.537500 0.688440
vt 0.525000 0.569268
vt 0.525000 0.688440
vt 0.512500 0.569268
vt 0.512500 0.688440
vt 0.500000 0.569268
vt 0.500000 0.688440
vt 0.487500 0.569268
vt 0.487500 0.688440
vt 0.475000 0.569268
vt 0.475000 0.688440
vt 0.462500 0.569268
vt 0.462500 0.688440
vt 0.450000 0.569268
vt 0.450000 0.688440
vt 0.437500 0.569268
vt 0.437500 0.688440
vt 0.425000 0.569268
vt 0.425000 0.688440
vt 0.412500 0.569268
vt 0.412500 0.688440
vt 0.400000 0.569268
vt 0.400000 0.688440
vt 0.387500 0.569268
vt 0.387500 0.688440
vt 0.375000 0.569268
vt 0.375000 0.688440
vt 0.625000 0.569268
vt 0.625000 0.688440
vt 0.575000 0.569268
vt 0.587500 0.569268
vt 0.587500 0.688440
vt 0.575000 0.688440
vt 0.575000 0.569268
vt 0.587500 0.569268
vt 0.587500 0.569268
vt 0.575000 0.569268
vn 0.951057 0.000000 -0.309017
vn 0.809017 0.000000 -0.587786
vn 0.809017 0.000000 -0.587786
vn 0.951057 0.000000 -0.309017
vn 0.587788 0.000000 -0.809015
vn 0.587788 0.000000 -0.809015
vn 0.309022 0.000000 -0.951055
vn 0.309022 0.000000 -0.951055
vn -0.000000 0.000000 -1.000000
vn -0.000000 0.000000 -1.000000
vn -0.309022 0.000000 -0.951055
vn -0.309022 0.000000 -0.951055
vn -0.587788 0.000000 -0.809015
vn -0.587788 0.000000 -0.809015
vn -0.809017 0.000000 -0.587785
vn -0.809017 0.000000 -0.587785
vn -0.951056 0.000000 -0.309018
vn -0.951056 0.000000 -0.309018
vn -1.000000 0.000000 -0.000000
vn -1.000000 0.000000 -0.000000
vn -0.951056 0.000000 0.309018
vn -0.951056 0.000000 0.309018
vn -0.809017 0.000000 0.587785
vn -0.809017 0.000000 0.587785
vn -0.587788 0.000000 0.809015
vn -0.587788 0.000000 0.809015
vn -0.309022 0.000000 0.951055
vn -0.309022 0.000000 0.951055
vn 0.000000 0.000000 1.000000
vn 0.000000 0.000000 1.000000
vn 0.309022 0.000000 0.951055
vn 0.309022 0.000000 0.951055
vn 0.587788 0.000000 0.809015
vn 0.587788 0.000000 0.809015
vn 0.809017 0.000000 0.587785
vn 0.809017 0.000000 0.587785
vn 0.951056 0.000000 0.309017
vn 0.951056 0.000000 0.309017
vn 1.000000 0.000000 0.000001
vn 1.000000 0.000000 0.000001
vn -0.000000 -1.000000 -0.000000
vn -0.000000 -1.000000 -0.000002
vn 0.000000 -1.000000 0.000000
vn 0.000000 -1.000000 0.000001
vn -0.000000 -1.000000 -0.000001
vn 0.000000 -1.000000 0.000000
vn -0.000000 -1.000000 -0.000002
vn -0.000000 -1.000000 -0.000000
vn -0.000000 -1.000000 -0.000000
vn -0.000000 -1.000000 -0.000002
vn 0.000000 -1.000000 0.000000
vn 0.000000 -1.000000 0.000002
vn 0.000000 -1.000000 0.000000
vn -0.000000 -1.000000 -0.000001
vn 0.000000 -1.000000 0.000001
vn 0.000000 -1.000000 0.000000
vn 0.000000 -1.000000 0.000002
vn 0.000000 -1.000000 0.000000
vn 0.000000 -1.000000 0.000000
vn 0.000000 -1.000000 0.000002
vn 0.000000 -1.000000 0.000000
vn 0.000000 1.000000 0.000000
vn 0.000000 1.000000 0.000000
vn -0.000000 1.000000 -0.000000
vn 0.000000 1.000000 0.000000
vn 0.000000 1.000000 0.000000
vn 0.000000 1.000000 0.000000
vn 0.000000 1.000000 0.000000
vn 0.000000 1.000000 0.000000
vn 0.000000 1.000000 0.000000
vn 0.000000 1.000000 0.000000
vn 0.000000 1.000000 0.000000
vn 0.000000 1.000000 0.000000
vn 0.000000 1.000000 0.000000
vn 0.000000 1.000000 0.000000
vn -0.000000 1.000000 -0.000000
vn -0.000000 1.000000 -0.000000
vn -0.000000 1.000000 -0.000000
vn 0.000000 1.000000 0.000000
vn 0.000000 1.000000 0.000000
vn 0.000000 1.000000 0.000000
vn 0.000000 1.000000 0.000000
vn 0.951056 0.000000 0.309019
vn 1.000000 0.000000 0.000001
vn 1.000000 0.000000 0.000001
vn 0.951056 0.000000 0.309019
vn 0.891003 0.000000 0.453997
vn 0.891003 0.000000 0.453997
vn 0.707095 0.000000 0.707119
vn 0.707095 0.000000 0.707119
vn 0.707095 0.000000 0.707119
vn 0.707095 0.000000 0.707119
vn 0.309018 0.000000 0.951056
vn 0.453991 0.000000 0.891006
vn 0.453991 0.000000 0.891006
vn 0.309018 0.000000 0.951056
vn 0.000000 0.000000 1.000000
vn 0.000000 0.000000 1.000000
vn -0.309018 0.000000 0.951056
vn -0.309018 0.000000 0.951056
vn -0.587785 0.000000 0.809017
vn -0.587785 0.000000 0.809017
vn -0.809014 0.000000 0.587789
vn -0.809014 0.000000 0.587789
vn -0.951056 0.000000 0.309019
vn -0.951056 0.000000 0.309019
vn -1.000000 0.000000 -0.000000
vn -1.000000 0.000000 -0.000000
vn -0.951056 0.000000 -0.309019
vn -0.951056 0.000000 -0.309019
vn -0.809014 0.000000 -0.587789
vn -0.809014 0.000000 -0.587789
vn -0.587785 0.000000 -0.809017
vn -0.587785 0.000000 -0.809017
vn -0.309018 0.000000 -0.951056
vn -0.309018 0.000000 -0.951056
vn -0.000000 0.000000 -1.000000
vn -0.000000 0.000000 -1.000000
vn 0.309018 0.000000 -0.951056
vn 0.309018 0.000000 -0.951056
vn 0.587785 0.000000 -0.809017
vn 0.587785 0.000000 -0.809017
vn 0.809014 -0.000000 -0.587789
vn 0.809014 -0.000000 -0.587789
vn 0.951056 -0.000000 -0.309018
vn 0.951056 -0.000000 -0.309018
vn 0.000000 -1.000000 0.000000
vn 0.000000 -1.000000 0.000000
vn 0.000000 -1.000000 0.000000
vn 0.000000 -1.000000 0.000000
vn 0.000000 1.000000 0.000000
vn 0.000000 1.000000 0.000000
vn -0.000000 -1.000000 -0.000000
vn -0.000000 -1.000000 -0.000000
vn 0.000000 1.000000 0.000000
vn 0.000000 -1.000000 0.000000
vn 0.000000 -1.000000 0.000000
vn 0.000000 1.000000 0.000000
vn 0.000000 -1.000000 0.000002
vn 0.000000 -1.000000 0.000002
vn 0.000000 1.000000 0.000000
vn 0.000000 -1.000000 0.000000
vn 0.000000 -1.000000 0.000000
vn -0.000000 1.000000 -0.000000
vn -0.000000 -1.000000 -0.000001
vn -0.000000 -1.000000 -0.000001
vn -0.000000 1.000000 -0.000000
vn 0.000000 -1.000000 0.000001
vn 0.000000 -1.000000 0.000001
vn 0.000000 1.000000 0.000000
vn 0.000000 -1.000000 0.000001
vn 0.000000 -1.000000 0.000001
vn 0.000000 1.000000 0.000000
vn 0.000000 -1.000000 0.000000
vn 0.000000 -1.000000 0.000000
vn 0.000000 1.000000 0.000000
vn 0.000000 -1.000000 0.000000
vn 0.000000 -1.000000 0.000000
vn 0.000000 1.000000 0.000000
vn 0.000000 -1.000000 0.000001
vn 0.000000 -1.000000 0.000001
vn 0.000000 1.000000 0.000000
vn 0.000000 -1.000000 0.000002
vn 0.000000 -1.000000 0.000002
vn 0.000000 1.000000 0.000000
vn 0.000000 -1.000000 0.000001
vn 0.000000 -1.000000 0.000001
vn 0.000000 1.000000 0.000000
vn 0.000000 -1.000000 0.000000
vn 0.000000 -1.000000 0.000000
vn 0.000000 1.000000 0.000000
vn -0.000000 -1.000000 -0.000000
vn -0.000000 -1.000000 -0.000000
vn 0.000000 1.000000 0.000000
vn -0.000000 -1.000000 -0.000001
vn -0.000000 -1.000000 -0.000001
vn 0.000000 1.000000 0.000000
vn -0.000000 -1.000000 -0.000002
vn -0.000000 -1.000000 -0.000002
vn 0.000000 1.000000 0.000000
vn -0.000000 -1.000000 -0.000001
vn -0.000000 -1.000000 -0.000001
vn 0.000000 1.000000 0.000000
vn 0.000000 -1.000000 0.000000
vn 0.000000 -1.000000 0.000000
vn 0.000000 1.000000 0.000000
vn 0.000000 -1.000000 0.000000
vn 0.000000 -1.000000 0.000000
vn 0.000000 -1.000000 0.000000
vn 0.000000 -1.000000 0.000000
vn 0.707127 0.000000 -0.707086
vn 0.707127 0.000000 -0.707086
vn 0.707127 0.000000 -0.707086
vn 0.707127 0.000000 -0.707086
vn 0.000000 1.000000 0.000000
vn 0.000000 1.000000 0.000000
vn -0.707118 0.000000 0.707095
vn -0.707119 0.000000 0.707095
vn -0.707119 0.000000 0.707095
vn -0.707118 0.000000 0.707095
vn -0.707106 0.000000 -0.707107
vn -0.707106 0.000000 -0.707107
vn -0.707106 0.000000 -0.707107
vn -0.707106 0.000000 -0.707107
vn 0.707127 0.000000 -0.707086
vn 0.707127 0.000000 -0.707086
vn 0.707095 0.000000 0.707119
vn 0.707095 0.000000 0.707119
vn -0.707119 0.000000 0.707095
vn -0.707119 0.000000 0.707095
s 1
g pCylinder49
usemtl initialShadingGroup
f 1/21/1 2/22/2 61/103/3 62/105/4
f 2/22/2 3/23/5 60/102/6 61/103/3
f 3/23/5 4/24/7 59/101/8 60/102/6
f 4/24/7 5/25/9 58/100/10 59/101/8
f 5/25/9 6/26/11 57/99/12 58/100/10
f 6/26/11 7/27/13 56/98/14 57/99/12
f 7/27/13 8/28/15 55/97/16 56/98/14
f 8/28/15 9/29/17 54/96/18 55/97/16
f 9/29/17 10/30/19 53/95/20 54/96/18
f 10/30/19 11/31/21 52/94/22 53/95/20
f 11/31/21 12/32/23 51/93/24 52/94/22
f 12/32/23 13/33/25 50/92/26 51/93/24
f 13/33/25 14/34/27 49/91/28 50/92/26
f 14/34/27 15/35/29 48/90/30 49/91/28
f 15/35/29 16/36/31 47/89/32 48/90/30
f 16/36/31 17/37/33 46/88/34 47/89/32
f 17/37/33 18/38/35 45/87/36 46/88/34
f 18/38/35 19/39/37 44/86/38 45/87/36
f 19/39/37 20/40/39 43/85/40 44/86/38
f 20/40/39 1/41/1 62/104/4 43/85/40
s 2
f 2/2/41 1/1/42 41/83/43
f 3/3/44 2/2/41 41/83/43
f 4/4/45 3/3/44 41/83/43
f 5/5/46 4/4/45 41/83/43
f 6/6/47 5/5/46 41/83/43
f 7/7/48 6/6/47 41/83/43
f 8/8/49 7/7/48 41/83/43
f 9/9/50 8/8/49 41/83/43
f 10/10/51 9/9/50 41/83/43
f 11/11/52 10/10/51 41/83/43
f 12/12/53 11/11/52 41/83/43
f 13/13/54 12/12/53 41/83/43
f 14/14/55 13/13/54 41/83/43
f 15/15/56 14/14/55 41/83/43
f 16/16/57 15/15/56 41/83/43
f 17/17/58 16/16/57 41/83/43
f 18/18/59 17/17/58 41/83/43
f 19/19/60 18/18/59 41/83/43
f 20/20/61 19/19/60 41/83/43
f 1/1/42 20/20/61 41/83/43
s 3
f 21/81/62 22/80/63 42/84/64
f 22/80/63 23/79/65 42/84/64
f 23/79/65 24/78/66 42/84/64
f 24/78/66 25/77/67 42/84/64
f 25/77/67 26/76/68 42/84/64
f 26/76/68 27/75/69 42/84/64
f 27/75/69 28/74/70 42/84/64
f 28/74/70 29/73/71 42/84/64
f 29/73/71 30/72/72 42/84/64
f 30/72/72 31/71/73 42/84/64
f 31/71/73 32/70/74 42/84/64
f 32/70/74 33/69/75 42/84/64
f 33/69/75 34/68/76 42/84/64
f 34/68/76 35/67/77 42/84/64
f 35/67/77 36/66/78 42/84/64
f 36/66/78 37/65/79 42/84/64
f 37/65/79 38/64/80 42/84/64
f 38/64/80 39/63/81 42/84/64
f 39/63/81 40/82/82 42/84/64
f 40/82/82 21/81/62 42/84/64
s 4
f 64/106/83 63/107/84 65/108/85 66/109/86
f 67/110/87 64/106/83 66/109/86 68/111/88
s 5
f 104/148/89 103/149/90 105/150/91 106/151/92
s 4
f 71/114/93 69/112/94 70/113/95 72/115/96
f 73/116/97 71/114/93 72/115/96 74/117/98
f 75/118/99 73/116/97 74/117/98 76/119/100
f 77/120/101 75/118/99 76/119/100 78/121/102
f 79/122/103 77/120/101 78/121/102 80/123/104
f 81/124/105 79/122/103 80/123/104 82/125/106
f 83/126/107 81/124/105 82/125/106 84/127/108
f 85/128/109 83/126/107 84/127/108 86/129/110
f 87/130/111 85/128/109 86/129/110 88/131/112
f 89/132/113 87/130/111 88/131/112 90/133/114
f 91/134/115 89/132/113 90/133/114 92/135/116
f 93/136/117 91/134/115 92/135/116 94/137/118
f 95/138/119 93/136/117 94/137/118 96/139/120
f 97/140/121 95/138/119 96/139/120 98/141/122
f 99/142/123 97/140/121 98/141/122 100/143/124
f 101/144/125 99/142/123 100/143/124 102/145/126
f 63/107/84 101/146/125 102/147/126 65/108/85
s 7
f 44/86/127 43/85/128 63/107/129 64/106/130
s 3
f 40/61/82 39/60/81 66/109/131 65/108/132
s 7
f 45/87/133 44/86/127 64/106/130 67/110/134
s 3
f 39/60/81 38/59/80 68/111/135 66/109/131
s 7
f 46/88/136 45/87/133 67/110/134 69/112/137
s 3
f 38/59/80 37/58/79 70/113/138 68/111/135
s 7
f 47/89/139 46/88/136 69/112/137 71/114/140
s 3
f 37/58/79 36/57/78 72/115/141 70/113/138
s 7
f 48/90/142 47/89/139 71/114/140 73/116/143
s 3
f 36/57/78 35/56/77 74/117/144 72/115/141
s 7
f 49/91/145 48/90/142 73/116/143 75/118/146
s 3
f 35/56/77 34/55/76 76/119/147 74/117/144
s 7
f 50/92/148 49/91/145 75/118/146 77/120/149
s 3
f 34/55/76 33/54/75 78/121/150 76/119/147
s 7
f 51/93/151 50/92/148 77/120/149 79/122/152
s 3
f 33/54/75 32/53/74 80/123/153 78/121/150
s 7
f 52/94/154 51/93/151 79/122/152 81/124/155
s 3
f 32/53/74 31/52/73 82/125/156 80/123/153
s 7
f 53/95/157 52/94/154 81/124/155 83/126/158
s 3
f 31/52/73 30/51/72 84/127/159 82/125/156
s 7
f 54/96/160 53/95/157 83/126/158 85/128/161
s 3
f 30/51/72 29/50/71 86/129/162 84/127/159
s 7
f 55/97/163 54/96/160 85/128/161 87/130/164
s 3
f 29/50/71 28/49/70 88/131/165 86/129/162
s 7
f 56/98/166 55/97/163 87/130/164 89/132/167
s 3
f 28/49/70 27/48/69 90/133/168 88/131/165
s 7
f 57/99/169 56/98/166 89/132/167 91/134/170
s 3
f 27/48/69 26/47/68 92/135/171 90/133/168
s 7
f 58/100/172 57/99/169 91/134/170 93/136/173
s 3
f 26/47/68 25/46/67 94/137/174 92/135/171
s 7
f 59/101/175 58/100/172 93/136/173 95/138/176
s 3
f 25/46/67 24/45/66 96/139/177 94/137/174
s 7
f 60/102/178 59/101/175 95/138/176 97/140/179
s 3
f 24/45/66 23/44/65 98/141/180 96/139/177
s 7
f 61/103/181 60/102/178 97/140/179 99/142/182
s 3
f 23/44/65 22/43/63 100/143/183 98/141/180
s 7
f 62/105/184 61/103/181 99/142/182 101/144/185
s 3
f 22/43/63 21/42/62 102/145/186 100/143/183
s 7
f 43/85/128 62/104/184 101/146/185 63/107/129
s 3
f 21/62/62 40/61/82 65/108/132 102/147/186
s off
f 108/152/187 107/153/188 109/154/189 110/155/190
s 8
f 67/110/191 68/111/192 105/150/193 103/149/194
s 3
f 68/111/135 70/113/138 106/151/195 105/150/196
s 9
f 70/113/197 69/112/198 104/148/199 106/151/200
s off
f 69/112/201 67/110/202 107/153/203 108/152/204
s 8
f 67/110/191 103/149/194 109/154/205 107/153/206
s 5
f 103/149/90 104/148/89 110/155/207 109/154/208
s 9
f 104/148/199 69/112/198 108/152/209 110/155/210
