# This file uses centimeters as units for non-parametric coordinates.

mtllib TrashTextured.mtl
g default
v 1.871815 -0.028962 -4.222154
v 2.666381 -0.028962 -4.222154
v 1.769098 0.952945 -4.119436
v 2.769098 0.952945 -4.119436
v 1.769098 0.952945 -5.119436
v 2.769098 0.952945 -5.119436
v 1.871815 -0.028962 -5.016719
v 2.666381 -0.028962 -5.016719
v 1.769098 0.952945 -4.181099
v 1.871815 -0.028962 -4.271149
v 2.666381 -0.028962 -4.271149
v 2.769098 0.952945 -4.181099
v 1.769098 0.952945 -5.073049
v 1.871815 -0.028962 -4.979861
v 2.666381 -0.028962 -4.979861
v 2.769098 0.952945 -5.073049
v 1.822746 0.952945 -5.119436
v 1.914442 -0.028962 -5.016719
v 1.914442 -0.028962 -4.979861
v 1.914442 -0.028962 -4.271149
v 1.914442 -0.028962 -4.222154
v 1.822746 0.952945 -4.119436
v 1.822746 0.952945 -4.181099
v 1.822746 0.952945 -5.073049
v 2.719070 0.952945 -5.119436
v 2.626630 -0.028962 -5.016719
v 2.626630 -0.028962 -4.979861
v 2.626630 -0.028962 -4.271149
v 2.626630 -0.028962 -4.222154
v 2.719070 0.952945 -4.119436
v 2.719070 0.952945 -4.181099
v 2.719070 0.952945 -5.073049
v 1.834696 0.829158 -4.192990
v 1.834696 0.829158 -5.061158
v 2.707120 0.829158 -4.192990
v 2.707120 0.829158 -5.061158
v 1.854307 0.637709 -4.212506
v 1.854307 0.637709 -5.041642
v 2.687508 0.637709 -4.212506
v 2.687508 0.637709 -5.041642
v 1.881324 0.387003 -4.239391
v 1.881324 0.387003 -5.014757
v 2.660492 0.387003 -4.239391
v 2.660492 0.387003 -5.014757
v 1.881324 0.043741 -4.239391
v 1.881324 0.043741 -5.014757
v 2.660492 0.043741 -4.239391
v 2.660492 0.043741 -5.014757
v 1.769098 1.024949 -4.119436
v 1.822746 1.024949 -4.119436
v 1.822746 1.024949 -4.181099
v 1.769098 1.024949 -4.181099
v 1.822746 1.024949 -5.073049
v 1.769098 1.024949 -5.073049
v 1.822746 1.024949 -5.119436
v 1.769098 1.024949 -5.119436
v 2.719070 1.024949 -4.119436
v 2.719070 1.024949 -4.181099
v 2.719070 1.024949 -5.073049
v 2.719070 1.024949 -5.119436
v 2.769098 1.024949 -4.119436
v 2.769098 1.024949 -4.181099
v 2.769098 1.024949 -5.073049
v 2.769098 1.024949 -5.119436
v 1.733862 0.952945 -4.084200
v 1.822746 0.952945 -4.048963
v 1.822746 1.024949 -4.048963
v 1.733862 1.024949 -4.084200
v 1.698625 0.952945 -4.181099
v 1.698625 1.024949 -4.181099
v 1.698625 0.952945 -5.073049
v 1.698625 1.024949 -5.073049
v 1.733862 0.952945 -5.154673
v 1.822746 0.952945 -5.189909
v 1.733862 1.024949 -5.154673
v 1.822746 1.024949 -5.189909
v 2.719070 0.952945 -4.048963
v 2.719070 1.024949 -4.048963
v 2.719070 0.952945 -5.189909
v 2.719070 1.024949 -5.189909
v 2.804335 0.952945 -4.084200
v 2.804335 1.024949 -4.084200
v 2.839571 0.952945 -4.181099
v 2.839571 1.024949 -4.181099
v 2.839571 0.952945 -5.073049
v 2.839571 1.024949 -5.073049
v 2.804335 0.952945 -5.154673
v 2.804335 1.024949 -5.154673
vt 0.375000 0.000000
vt 0.625000 0.000000
vt 0.375000 0.250000
vt 0.625000 0.250000
vt 0.375000 0.500000
vt 0.625000 0.500000
vt 0.375000 0.750000
vt 0.625000 0.750000
vt 0.375000 1.000000
vt 0.625000 1.000000
vt 0.875000 0.000000
vt 0.875000 0.250000
vt 0.125000 0.000000
vt 0.125000 0.250000
vt 0.359584 0.250000
vt 0.375000 0.265416
vt 0.359584 0.000000
vt 0.375000 0.984584
vt 0.625000 0.984584
vt 0.640416 0.000000
vt 0.625000 0.265416
vt 0.640416 0.250000
vt 0.136597 0.250000
vt 0.375000 0.488403
vt 0.136597 0.000000
vt 0.375000 0.761597
vt 0.625000 0.761597
vt 0.863403 0.000000
vt 0.625000 0.488403
vt 0.863403 0.250000
vt 0.388412 0.492843
vt 0.388412 0.750000
vt 0.388412 0.761597
vt 0.388412 0.984584
vt 0.388412 0.000000
vt 0.388412 1.000000
vt 0.388412 0.250000
vt 0.388412 0.265416
vt 0.388412 0.488403
vt 0.612493 0.492843
vt 0.612493 0.750000
vt 0.612493 0.761597
vt 0.612493 0.984584
vt 0.612493 0.000000
vt 0.612493 1.000000
vt 0.612493 0.250000
vt 0.612493 0.265416
vt 0.612493 0.488403
vt 0.388412 0.488403
vt 0.388412 0.265416
vt 0.612493 0.265416
vt 0.612493 0.488403
vt 0.388412 0.488403
vt 0.388412 0.265416
vt 0.612493 0.265416
vt 0.612493 0.488403
vt 0.388412 0.488403
vt 0.388412 0.265416
vt 0.612493 0.265416
vt 0.612493 0.488403
vt 0.388412 0.488403
vt 0.388412 0.265416
vt 0.612493 0.265416
vt 0.612493 0.488403
vt 0.382625 0.250000
vt 0.388412 0.218978
vt 0.381648 0.265416
vt 0.388412 0.265416
vt 0.388412 0.488403
vt 0.381648 0.488403
vt 0.388412 0.513420
vt 0.375000 0.500000
vt 0.612493 0.218978
vt 0.612493 0.265416
vt 0.612493 0.488403
vt 0.612493 0.513420
vt 0.625000 0.250000
vt 0.617843 0.265416
vt 0.617843 0.488403
vt 0.625000 0.500000
vt 0.375000 0.250000
vt 0.388412 0.191849
vt 0.388412 0.250000
vt 0.382625 0.250000
vt 0.410785 0.265416
vt 0.375000 0.265416
vt 0.410785 0.488403
vt 0.375000 0.488403
vt 0.388412 0.500000
vt 0.375000 0.500000
vt 0.375000 0.500000
vt 0.388412 0.508052
vt 0.612493 0.191849
vt 0.612493 0.250000
vt 0.612493 0.500000
vt 0.612493 0.508052
vt 0.625000 0.250000
vt 0.625000 0.250000
vt 0.599950 0.265416
vt 0.625000 0.265416
vt 0.599950 0.488403
vt 0.625000 0.488403
vt 0.625000 0.500000
vt 0.625000 0.500000
vn 0.000000 -0.104042 0.994573
vn 0.000000 -0.104042 0.994573
vn 0.000000 -0.104042 0.994573
vn 0.000000 -0.104042 0.994573
vn 0.000000 1.000000 0.000000
vn 0.000000 1.000000 0.000000
vn 0.000000 1.000000 0.000000
vn 0.000000 1.000000 0.000000
vn 0.000000 -0.104042 -0.994573
vn 0.000000 -0.104042 -0.994573
vn 0.000000 -0.104042 -0.994573
vn 0.000000 -0.104042 -0.994573
vn 0.000000 -1.000000 0.000000
vn 0.000000 -1.000000 0.000000
vn 0.000000 -1.000000 0.000000
vn 0.000000 -1.000000 0.000000
vn 0.994573 -0.104042 0.000000
vn 0.994573 -0.104042 0.000000
vn 0.994573 -0.104042 0.000000
vn 0.994573 -0.104042 0.000000
vn -0.994573 -0.104042 0.000000
vn -0.994573 -0.104042 0.000000
vn -0.994573 -0.104042 0.000000
vn -0.994573 -0.104042 0.000000
vn -0.994573 -0.104042 0.000000
vn -0.994573 -0.104042 0.000000
vn 0.000000 -1.000000 0.000000
vn 0.000000 -1.000000 0.000000
vn 0.994573 -0.104042 0.000000
vn 0.994573 -0.104042 0.000000
vn 0.000000 1.000000 0.000000
vn 0.000000 1.000000 0.000000
vn -0.994573 -0.104042 0.000000
vn -0.994573 -0.104042 0.000000
vn 0.000000 -1.000000 0.000000
vn 0.000000 -1.000000 0.000000
vn 0.994573 -0.104042 0.000000
vn 0.994573 -0.104042 0.000000
vn 0.000000 1.000000 0.000000
vn 0.000000 1.000000 0.000000
vn 0.000000 -0.104042 -0.994573
vn 0.000000 -0.104042 -0.994573
vn 0.000000 -1.000000 0.000000
vn 0.000000 -1.000000 0.000000
vn 0.000000 -1.000000 0.000000
vn 0.000000 -1.000000 0.000000
vn 0.000000 -0.104042 0.994573
vn 0.000000 -0.104042 0.994573
vn 0.000000 1.000000 -0.000000
vn 0.000000 1.000000 0.000000
vn 0.000000 1.000000 0.000000
vn 0.000000 1.000000 0.000000
vn 0.000000 1.000000 0.000000
vn 0.000000 1.000000 0.000000
vn 0.000000 1.000000 0.000000
vn 0.000000 1.000000 0.000000
vn 0.000000 -0.104042 -0.994573
vn 0.000000 -0.104042 -0.994573
vn 0.000000 -1.000000 0.000000
vn 0.000000 -1.000000 0.000000
vn 0.000000 -1.000000 0.000000
vn 0.000000 -1.000000 0.000000
vn 0.000000 -0.104042 0.994573
vn 0.000000 -0.104042 0.994573
vn 0.000000 1.000000 -0.000000
vn 0.000000 1.000000 0.000000
vn 0.000000 1.000000 0.000000
vn 0.000000 1.000000 0.000000
vn 0.998246 0.059206 0.000000
vn 0.998246 0.059206 0.000000
vn 0.995048 0.099394 0.000000
vn 0.995048 0.099394 0.000000
vn 0.000000 0.058911 -0.998263
vn 0.000000 0.058911 -0.998263
vn 0.000000 0.098913 -0.995096
vn 0.000000 0.098913 -0.995096
vn -0.998246 0.059206 0.000000
vn -0.998246 0.059206 0.000000
vn -0.995048 0.099394 0.000000
vn -0.995048 0.099394 0.000000
vn 0.000000 0.058911 0.998263
vn 0.000000 0.058911 0.998263
vn 0.000000 0.098913 0.995096
vn 0.000000 0.098913 0.995096
vn 0.994511 0.104630 0.000000
vn 0.994511 0.104630 0.000000
vn 0.000000 0.104124 -0.994564
vn 0.000000 0.104124 -0.994564
vn -0.994511 0.104630 0.000000
vn -0.994511 0.104630 0.000000
vn 0.000000 0.104124 0.994564
vn 0.000000 0.104124 0.994564
vn 0.998844 0.048063 0.000000
vn 0.998844 0.048063 0.000000
vn 0.000000 0.047837 -0.998855
vn 0.000000 0.047837 -0.998855
vn -0.998844 0.048063 0.000000
vn -0.998844 0.048063 0.000000
vn 0.000000 0.047837 0.998855
vn 0.000000 0.047837 0.998855
vn 1.000000 0.000000 0.000000
vn 1.000000 0.000000 0.000000
vn 0.000000 0.000000 -1.000000
vn 0.000000 0.000000 -1.000000
vn -1.000000 0.000000 0.000000
vn -1.000000 0.000000 0.000000
vn 0.000000 0.000000 1.000000
vn 0.000000 0.000000 1.000000
vn -0.368527 0.000000 0.929617
vn -0.035742 0.000000 0.999361
vn -0.035742 0.000000 0.999361
vn -0.368527 0.000000 0.929617
vn -0.999366 0.000000 0.035611
vn -0.939792 0.000000 0.341746
vn -0.939792 0.000000 0.341746
vn -0.999366 0.000000 0.035611
vn 1.000000 0.000000 0.000000
vn 1.000000 0.000000 0.000000
vn -0.999346 0.000000 -0.036169
vn -0.999346 0.000000 -0.036169
vn -0.035742 0.000000 -0.999361
vn -0.368527 0.000000 -0.929617
vn -0.368527 0.000000 -0.929617
vn -0.035742 0.000000 -0.999361
vn -0.918104 0.000000 -0.396339
vn -0.918104 0.000000 -0.396339
vn 0.035874 0.000000 0.999356
vn 0.035874 0.000000 0.999356
vn 0.000000 0.000000 -1.000000
vn 0.000000 0.000000 -1.000000
vn 0.000000 0.000000 1.000000
vn 0.000000 0.000000 1.000000
vn 0.035874 0.000000 -0.999356
vn 0.035874 0.000000 -0.999356
vn 0.381930 0.000000 0.924191
vn 0.381930 0.000000 0.924191
vn 0.939792 0.000000 0.341746
vn 0.999366 0.000000 0.035611
vn 0.999366 0.000000 0.035611
vn 0.939792 0.000000 0.341746
vn -1.000000 0.000000 0.000000
vn -1.000000 0.000000 0.000000
vn 0.999346 0.000000 -0.036169
vn 0.999346 0.000000 -0.036169
vn 0.918104 0.000000 -0.396339
vn 0.918104 0.000000 -0.396339
vn 0.381930 0.000000 -0.924191
vn 0.381930 0.000000 -0.924191
vn 0.000000 -1.000000 0.000000
vn 0.000000 -1.000000 0.000000
vn 0.000000 -1.000000 0.000000
vn 0.000000 -1.000000 0.000000
vn 0.000000 1.000000 0.000000
vn 0.000000 1.000000 0.000000
vn 0.000000 -1.000000 0.000000
vn 0.000000 -1.000000 0.000000
vn 0.000000 1.000000 0.000000
vn 0.000000 -1.000000 0.000000
vn 0.000000 -1.000000 0.000000
vn 0.000000 1.000000 0.000000
vn 0.000000 -1.000000 0.000000
vn 0.000000 -1.000000 0.000000
vn 0.000000 -1.000000 0.000000
vn 0.000000 -1.000000 0.000000
vn 0.000000 1.000000 0.000000
vn 0.000000 1.000000 0.000000
vn 0.000000 -1.000000 0.000000
vn 0.000000 -1.000000 0.000000
vn 0.000000 1.000000 -0.000000
vn 0.000000 -1.000000 0.000000
vn 0.000000 -1.000000 0.000000
vn 0.000000 1.000000 0.000000
vn 0.000000 -1.000000 0.000000
vn 0.000000 -1.000000 0.000000
vn 0.000000 1.000000 -0.000000
vn 0.000000 -1.000000 0.000000
vn 0.000000 -1.000000 0.000000
vn 0.000000 1.000000 0.000000
vn 0.000000 -1.000000 0.000000
vn 0.000000 -1.000000 0.000000
vn 0.000000 1.000000 0.000000
vn 0.000000 -1.000000 0.000000
vn 0.000000 -1.000000 0.000000
vn 0.000000 1.000000 0.000000
s 1
g pCube80
usemtl initialShadingGroup
f 1/1/1 21/35/2 22/37/3 3/3/4
s 2
f 49/65/5 50/66/6 51/68/7 52/67/8
s 3
f 5/5/9 17/31/10 18/32/11 7/7/12
s 4
f 10/18/13 20/34/14 21/36/15 1/9/16
s 5
f 2/2/17 11/20/18 12/22/19 4/4/20
s 6
f 10/17/21 1/1/22 3/3/23 9/15/24
f 14/25/25 10/17/21 9/15/24 13/23/26
s 4
f 14/26/27 19/33/28 20/34/14 10/18/13
s 5
f 12/22/19 11/20/18 15/28/29 16/30/30
s 2
f 52/67/8 51/68/7 53/69/31 54/70/32
s 6
f 7/13/33 14/25/25 13/23/26 5/14/34
s 4
f 7/7/35 18/32/36 19/33/28 14/26/27
s 5
f 16/30/30 15/28/29 8/11/37 6/12/38
s 2
f 54/70/32 53/69/31 55/71/39 56/72/40
s 3
f 17/31/10 25/40/41 26/41/42 18/32/11
s 4
f 19/33/28 18/32/36 26/41/43 27/42/44
f 20/34/14 19/33/28 27/42/44 28/43/45
f 21/36/15 20/34/14 28/43/45 29/45/46
s 1
f 22/37/3 21/35/2 29/44/47 30/46/48
s 2
f 51/68/7 50/66/6 57/73/49 58/74/50
s off
f 46/61/51 45/62/52 47/63/53 48/64/54
s 2
f 55/71/39 53/69/31 59/75/55 60/76/56
s 3
f 25/40/41 6/6/57 8/8/58 26/41/42
s 4
f 27/42/44 26/41/43 8/8/59 15/27/60
f 28/43/45 27/42/44 15/27/60 11/19/61
f 29/45/46 28/43/45 11/19/61 2/10/62
s 1
f 30/46/48 29/44/47 2/2/63 4/4/64
s 2
f 58/74/50 57/73/49 61/77/65 62/78/66
f 59/75/55 58/74/50 62/78/66 63/79/67
f 60/76/56 59/75/55 63/79/67 64/80/68
s 7
f 24/39/69 23/38/70 33/50/71 34/49/72
s 8
f 23/38/73 31/47/74 35/51/75 33/50/76
s 9
f 31/47/77 32/48/78 36/52/79 35/51/80
s 10
f 32/48/81 24/39/82 34/49/83 36/52/84
s 7
f 34/49/72 33/50/71 37/54/85 38/53/86
s 8
f 33/50/76 35/51/75 39/55/87 37/54/88
s 9
f 35/51/80 36/52/79 40/56/89 39/55/90
s 10
f 36/52/84 34/49/83 38/53/91 40/56/92
s 7
f 38/53/86 37/54/85 41/58/93 42/57/94
s 8
f 37/54/88 39/55/87 43/59/95 41/58/96
s 9
f 39/55/90 40/56/89 44/60/97 43/59/98
s 10
f 40/56/92 38/53/91 42/57/99 44/60/100
s 7
f 42/57/94 41/58/93 45/62/101 46/61/102
s 8
f 41/58/96 43/59/95 47/63/103 45/62/104
s 9
f 43/59/98 44/60/97 48/64/105 47/63/106
s 10
f 44/60/100 42/57/99 46/61/107 48/64/108
s 11
f 65/81/109 66/82/110 67/83/111 68/84/112
s 12
f 69/85/113 65/81/114 68/84/115 70/86/116
s 7
f 23/38/70 24/39/69 53/69/117 51/68/118
s 12
f 71/87/119 69/85/113 70/86/116 72/88/120
s 13
f 74/89/121 73/90/122 75/91/123 76/92/124
s 12
f 73/90/125 71/87/119 72/88/120 75/91/126
s 11
f 66/82/110 77/93/127 78/94/128 67/83/111
s 8
f 31/47/74 23/38/73 51/68/129 58/74/130
s 10
f 24/39/82 32/48/81 59/75/131 53/69/132
s 13
f 79/95/133 74/89/121 76/92/124 80/96/134
s 11
f 77/93/127 81/97/135 82/98/136 78/94/128
s 14
f 81/97/137 83/99/138 84/100/139 82/98/140
s 9
f 32/48/78 31/47/77 58/74/141 59/75/142
s 14
f 83/99/138 85/101/143 86/102/144 84/100/139
f 85/101/143 87/103/145 88/104/146 86/102/144
s 13
f 87/103/147 79/95/133 80/96/134 88/104/148
s 15
f 3/3/149 22/37/150 66/82/151 65/81/152
s 2
f 50/66/6 49/65/5 68/84/153 67/83/154
s 15
f 9/16/155 3/3/149 65/81/152 69/85/156
s 2
f 49/65/5 52/67/8 70/86/157 68/84/153
s 15
f 13/24/158 9/16/155 69/85/156 71/87/159
s 2
f 52/67/8 54/70/32 72/88/160 70/86/157
s 15
f 17/31/161 5/5/162 73/90/163 74/89/164
s 2
f 56/72/40 55/71/39 76/92/165 75/91/166
s 15
f 5/5/162 13/24/158 71/87/159 73/90/163
s 2
f 54/70/32 56/72/40 75/91/166 72/88/160
s 15
f 22/37/150 30/46/167 77/93/168 66/82/151
s 2
f 57/73/49 50/66/6 67/83/154 78/94/169
s 15
f 25/40/170 17/31/161 74/89/164 79/95/171
s 2
f 55/71/39 60/76/56 80/96/172 76/92/165
s 15
f 30/46/167 4/4/173 81/97/174 77/93/168
s 2
f 61/77/65 57/73/49 78/94/169 82/98/175
s 15
f 4/4/173 12/21/176 83/99/177 81/97/174
s 2
f 62/78/66 61/77/65 82/98/175 84/100/178
s 15
f 12/21/176 16/29/179 85/101/180 83/99/177
s 2
f 63/79/67 62/78/66 84/100/178 86/102/181
s 15
f 16/29/179 6/6/182 87/103/183 85/101/180
s 2
f 64/80/68 63/79/67 86/102/181 88/104/184
s 15
f 6/6/182 25/40/170 79/95/171 87/103/183
s 2
f 60/76/56 64/80/68 88/104/184 80/96/172
