# This file uses centimeters as units for non-parametric coordinates.

mtllib SecurityGateTextured.mtl
g default
v -0.828231 -0.325730 -10.705154
v -0.586650 -0.325730 -10.705154
v -0.828231 4.431197 -10.705154
v -0.586650 4.431197 -10.705154
v -0.828231 -0.325730 -11.077709
v -0.586650 -0.325730 -11.077709
v -0.828231 4.036583 -10.705154
v -0.828231 4.036583 -11.077709
v -0.586650 4.036583 -11.077709
v -0.586650 4.036583 -10.705154
v -0.586650 4.036583 -7.462058
v -0.828231 4.036583 -7.462058
v -0.586650 4.431197 -7.462058
v -0.828231 4.431197 -7.462058
v -0.828231 -0.325730 -7.087923
v -0.586650 -0.325730 -7.087923
v -0.828231 -0.325730 -7.462058
v -0.586650 -0.325730 -7.462058
v -0.828231 4.036583 -7.087923
v -0.586650 4.036583 -7.087923
v -0.586650 2.179850 -12.020227
v -0.828231 2.179850 -12.020227
v -0.828231 2.179850 -11.471655
v -0.586650 2.179850 -11.471655
v -0.828231 2.152945 -6.696305
v -0.828231 2.152945 -6.145404
v -0.586650 2.152945 -6.145404
v -0.586650 2.152945 -6.696305
vt 0.661671 0.077865
vt 0.675286 0.077865
vt 0.661671 0.303256
vt 0.675286 0.303256
vt 0.661671 0.754039
vt 0.675286 0.754039
vt 0.661671 0.979431
vt 0.675286 0.979431
vt 0.688900 0.077865
vt 0.648057 0.077865
vt 0.661671 0.285065
vt 0.648057 0.285065
vt 0.661671 0.546840
vt 0.675286 0.546840
vt 0.688900 0.285065
vt 0.675286 0.285065
vt 0.661671 0.285065
vt 0.675286 0.285065
vt 0.675286 0.303256
vt 0.661671 0.303256
vt 0.796099 0.049347
vt 0.818682 0.049347
vt 0.818682 0.264101
vt 0.796099 0.264101
vt 0.818682 0.518858
vt 0.796099 0.518858
vt 0.796099 0.538859
vt 0.818682 0.538859
vt 0.818682 0.753613
vt 0.796099 0.753613
vt 0.818682 0.988369
vt 0.796099 0.988369
vt 0.841265 0.049347
vt 0.841265 0.264101
vt 0.773516 0.049347
vt 0.773516 0.264101
vt 0.773516 0.284102
vt 0.841265 0.284102
vt 0.675286 0.635030
vt 0.688900 0.196874
vt 0.648057 0.196874
vt 0.661671 0.635030
vt 0.661671 0.196874
vt 0.675286 0.196874
vt 0.773516 0.171371
vt 0.796099 0.631589
vt 0.796099 0.171371
vt 0.818682 0.171371
vt 0.818682 0.631589
vt 0.841265 0.171371
vn 0.000000 -0.000000 1.000000
vn 0.000000 -0.000000 1.000000
vn 0.000000 -0.381585 0.924334
vn 0.000000 -0.381585 0.924334
vn 0.000000 0.504382 -0.863481
vn 0.000000 0.504382 -0.863481
vn 0.000000 0.000000 -1.000000
vn 0.000000 0.000000 -1.000000
vn 0.000000 -1.000000 0.000000
vn 0.000000 -1.000000 0.000000
vn 0.000000 -1.000000 0.000000
vn 0.000000 -1.000000 0.000000
vn 1.000000 -0.000000 0.000000
vn 1.000000 -0.000000 0.000000
vn 1.000000 -0.000001 0.000000
vn 1.000000 -0.000000 0.000000
vn -1.000000 0.000000 0.000000
vn -1.000000 0.000000 0.000000
vn -1.000000 0.000000 0.000000
vn -1.000000 0.000000 0.000000
vn -1.000000 0.000000 0.000000
vn 0.000000 0.994097 -0.108496
vn 0.000000 0.994097 -0.108496
vn 1.000000 0.000000 0.000000
vn 0.000000 0.000000 1.000000
vn 0.000000 0.000000 1.000000
vn 0.000000 0.000000 1.000000
vn 0.000000 0.000000 1.000000
vn 0.000000 -1.000000 0.000000
vn 0.000000 -1.000000 0.000000
vn 0.000000 -1.000000 0.000000
vn 0.000000 -1.000000 0.000000
vn 1.000000 0.000000 0.000000
vn 1.000000 0.000000 0.000000
vn 0.000000 1.000000 0.000000
vn 0.000000 1.000000 0.000000
vn -1.000000 0.000000 0.000000
vn -1.000000 0.000000 0.000000
vn 0.000000 -0.000000 1.000000
vn 0.000000 -0.000000 1.000000
vn 0.000000 0.500371 0.865811
vn 0.000000 0.500371 0.865811
vn 0.000000 0.688025 0.725687
vn 0.000000 0.688025 0.725687
vn 0.000000 -0.376599 -0.926377
vn 0.000000 -0.376599 -0.926377
vn 0.000000 -0.000000 -1.000000
vn 0.000000 -0.000000 -1.000000
vn 0.000000 -1.000000 0.000000
vn 0.000000 -1.000000 0.000000
vn 0.000000 -1.000000 0.000000
vn 0.000000 -1.000000 0.000000
vn 1.000000 0.000000 0.000000
vn 1.000000 0.000000 0.000000
vn 1.000000 0.000000 0.000000
vn 1.000000 0.000000 0.000000
vn -1.000000 0.000000 0.000000
vn -1.000000 -0.000000 0.000000
vn -1.000000 0.000001 0.000000
vn -1.000000 0.000000 0.000000
vn -1.000000 0.000000 0.000000
vn 0.000000 0.000000 -1.000000
vn 0.000000 0.000000 -1.000000
vn 0.000000 0.000000 -1.000000
vn 0.000000 0.000000 -1.000000
vn 1.000000 0.000000 0.000000
vn 0.000000 -0.352082 -0.935969
vn 0.000000 -0.352082 -0.935969
vn -1.000000 0.000000 0.000000
vn -1.000000 0.000000 0.000000
vn 0.000000 0.292535 0.956255
vn 0.000000 0.292535 0.956255
vn 1.000000 0.000000 0.000000
vn 1.000000 0.000000 0.000000
vn -1.000000 -0.000000 0.000000
vn -1.000000 -0.000000 0.000000
vn 0.000000 -0.355423 0.934706
vn 0.000000 -0.355423 0.934706
vn 1.000000 0.000000 0.000000
vn 1.000000 0.000000 0.000000
vn 0.000000 0.295172 -0.955444
vn 0.000000 0.295172 -0.955444
s 1
g pCube115
usemtl initialShadingGroup
f 23/43/1 24/44/2 10/16/3 7/11/4
s 2
f 8/13/5 9/14/6 21/39/7 22/42/8
s off
f 5/5/9 6/6/10 2/8/11 1/7/12
s 3
f 24/44/13 21/40/14 9/15/15 10/16/16
s 4
f 22/41/17 23/43/18 7/11/19 8/12/20
f 8/12/20 7/11/19 3/3/21
s 2
f 4/4/22 9/14/6 8/13/5 3/3/23
s 3
f 10/16/16 9/15/15 4/4/24
s off
f 12/17/25 11/18/26 13/19/27 14/20/28
f 7/11/29 10/16/30 11/18/31 12/17/32
s 3
f 10/16/16 4/4/24 13/19/33 11/18/34
s 2
f 4/4/22 3/3/23 14/20/35 13/19/36
s 4
f 3/3/21 7/11/19 12/17/37 14/20/38
s 5
f 26/47/39 27/48/40 20/23/41 19/24/42
f 13/25/43 14/26/44 19/24/42 20/23/41
s 6
f 12/27/45 11/28/46 28/49/47 25/46/48
s off
f 17/30/49 18/29/50 16/31/51 15/32/52
s 7
f 27/48/53 28/50/54 11/34/55 20/23/56
s 8
f 25/45/57 26/47/58 19/24/59 12/36/60
f 12/36/60 19/24/59 14/37/61
s off
f 14/26/62 13/25/63 11/28/64 12/27/65
s 7
f 20/23/56 11/34/55 13/38/66
s 2
f 22/42/8 21/39/7 6/6/67 5/5/68
s 4
f 5/10/69 1/1/70 23/43/18 22/41/17
s 1
f 1/1/71 2/2/72 24/44/2 23/43/1
s 3
f 2/2/73 6/9/74 21/40/14 24/44/13
s 8
f 17/35/75 15/21/76 26/47/58 25/45/57
s 5
f 15/21/77 16/22/78 27/48/40 26/47/39
s 7
f 16/22/79 18/33/80 28/50/54 27/48/53
s 6
f 25/46/48 28/49/47 18/29/81 17/30/82
g default
v -1.339566 -0.088257 -7.021141
v -0.831776 -0.088257 -7.021141
v -1.339566 4.136676 -7.304794
v -0.831776 4.136676 -7.304794
v -1.339566 4.136676 -8.979431
v -0.831776 4.136676 -8.979431
v -1.339566 -0.088257 -8.979431
v -0.831776 -0.088257 -8.979431
v -1.339566 2.395731 -6.387620
v -1.339566 2.395731 -8.979431
v -0.831776 2.395731 -8.979431
v -0.831776 2.395731 -6.387620
vt 0.144447 0.123134
vt 0.229336 0.123134
vt 0.144447 0.296402
vt 0.229336 0.296402
vt 0.144447 0.469670
vt 0.229336 0.469670
vt 0.144447 0.642938
vt 0.229336 0.642938
vt 0.144447 0.816206
vt 0.229336 0.816206
vt 0.314226 0.123134
vt 0.314226 0.296402
vt 0.059557 0.123134
vt 0.059557 0.296402
vt 0.144447 0.224335
vt 0.059557 0.224335
vt 0.144447 0.541736
vt 0.229336 0.541736
vt 0.314226 0.224335
vt 0.229336 0.224335
vn 0.000000 -0.247131 0.968982
vn 0.000000 -0.247131 0.968982
vn 0.000000 0.066987 0.997754
vn 0.000000 0.066987 0.997754
vn 0.000000 1.000000 0.000000
vn 0.000000 1.000000 0.000000
vn 0.000000 1.000000 0.000000
vn 0.000000 1.000000 0.000000
vn 0.000000 0.000000 -1.000000
vn 0.000000 0.000000 -1.000000
vn 0.000000 0.000000 -1.000000
vn 0.000000 0.000000 -1.000000
vn 0.000000 -1.000000 0.000000
vn 0.000000 -1.000000 0.000000
vn 0.000000 -1.000000 0.000000
vn 0.000000 -1.000000 0.000000
vn 1.000000 0.000000 0.000000
vn 1.000000 0.000000 0.000000
vn 1.000000 -0.000000 0.000000
vn 1.000000 -0.000000 0.000000
vn -1.000000 0.000000 0.000000
vn -1.000000 0.000000 0.000000
vn -1.000000 0.000000 0.000000
vn -1.000000 0.000000 0.000000
vn -1.000000 0.000000 0.000000
vn -1.000000 0.000000 0.000000
vn 0.000000 0.000000 -1.000000
vn 0.000000 0.000000 -1.000000
vn 1.000000 -0.000000 0.000000
vn 1.000000 -0.000000 0.000000
vn 0.000000 0.466100 0.884732
vn 0.000000 0.466100 0.884732
s 1
g pCube116
usemtl initialShadingGroup
f 29/51/83 30/52/84 40/70/85 37/65/86
s off
f 31/53/87 32/54/88 34/56/89 33/55/90
s 2
f 38/67/91 39/68/92 36/58/93 35/57/94
s off
f 35/57/95 36/58/96 30/60/97 29/59/98
s 3
f 30/52/99 36/61/100 39/69/101 40/70/102
s 4
f 35/63/103 29/51/104 37/65/105 38/66/106
f 38/66/106 37/65/105 31/53/107 33/64/108
s 2
f 33/55/109 34/56/110 39/68/92 38/67/91
s 3
f 40/70/102 39/69/101 34/62/111 32/54/112
s 1
f 37/65/86 40/70/85 32/54/113 31/53/114
g default
v -1.339566 -0.088257 -8.990375
v -0.831776 -0.088257 -8.990375
v -1.339566 4.136676 -8.990375
v -0.831776 4.136676 -8.990375
v -1.339566 4.136676 -10.665011
v -0.831776 4.136676 -10.665011
v -1.339566 -0.088257 -10.948664
v -0.831776 -0.088257 -10.948664
v -1.339566 2.395732 -11.582186
v -1.339566 2.395732 -8.990375
v -0.831776 2.395732 -8.990375
v -0.831776 2.395732 -11.582186
vt 0.427731 0.106096
vt 0.493731 0.106096
vt 0.427731 0.296431
vt 0.493731 0.296431
vt 0.427731 0.486767
vt 0.493731 0.486767
vt 0.427731 0.677102
vt 0.493731 0.677102
vt 0.427731 0.867438
vt 0.493731 0.867438
vt 0.559731 0.106096
vt 0.559731 0.296431
vt 0.361731 0.106096
vt 0.361731 0.296431
vt 0.361731 0.218735
vt 0.427731 0.564462
vt 0.427731 0.218735
vt 0.493731 0.218735
vt 0.493731 0.564462
vt 0.559731 0.218735
vn 0.000000 0.000000 1.000000
vn 0.000000 0.000000 1.000000
vn 0.000000 0.000000 1.000000
vn 0.000000 0.000000 1.000000
vn 0.000000 1.000000 0.000000
vn 0.000000 1.000000 0.000000
vn 0.000000 1.000000 0.000000
vn 0.000000 1.000000 0.000000
vn 0.000000 0.466100 -0.884732
vn 0.000000 0.466100 -0.884732
vn 0.000000 0.066987 -0.997754
vn 0.000000 0.066987 -0.997754
vn 0.000000 -1.000000 0.000000
vn 0.000000 -1.000000 0.000000
vn 0.000000 -1.000000 0.000000
vn 0.000000 -1.000000 0.000000
vn 1.000000 0.000000 0.000000
vn 1.000000 0.000000 0.000000
vn 1.000000 0.000000 0.000000
vn 1.000000 0.000000 0.000000
vn -1.000000 -0.000000 0.000000
vn -1.000000 -0.000000 0.000000
vn -1.000000 -0.000000 0.000000
vn -1.000000 -0.000000 0.000000
vn -1.000000 0.000000 0.000000
vn -1.000000 0.000000 0.000000
vn 0.000000 0.000000 1.000000
vn 0.000000 0.000000 1.000000
vn 1.000000 0.000000 0.000000
vn 1.000000 0.000000 0.000000
vn 0.000000 -0.247131 -0.968982
vn 0.000000 -0.247131 -0.968982
s 1
g pCube117
usemtl initialShadingGroup
f 50/87/115 51/88/116 44/74/117 43/73/118
s off
f 43/73/119 44/74/120 46/76/121 45/75/122
s 2
f 45/75/123 46/76/124 52/89/125 49/86/126
s off
f 47/77/127 48/78/128 42/80/129 41/79/130
s 3
f 51/88/131 52/90/132 46/82/133 44/74/134
s 4
f 49/85/135 50/87/136 43/73/137 45/84/138
f 47/83/139 41/71/140 50/87/136 49/85/135
s 1
f 41/71/141 42/72/142 51/88/116 50/87/115
s 3
f 42/72/143 48/81/144 52/90/132 51/88/131
s 2
f 49/86/126 52/89/125 48/78/145 47/77/146
g default
v -0.828231 -0.325730 -10.705154
v -0.586650 -0.325730 -10.705154
v -0.828231 4.431197 -10.705154
v -0.586650 4.431197 -10.705154
v -0.828231 -0.325730 -11.077709
v -0.586650 -0.325730 -11.077709
v -0.828231 4.036583 -10.705154
v -0.828231 4.036583 -11.077709
v -0.586650 4.036583 -11.077709
v -0.586650 4.036583 -10.705154
v -0.586650 4.036583 -7.462058
v -0.828231 4.036583 -7.462058
v -0.586650 4.431197 -7.462058
v -0.828231 4.431197 -7.462058
v -0.828231 -0.325730 -7.087923
v -0.586650 -0.325730 -7.087923
v -0.828231 -0.325730 -7.462058
v -0.586650 -0.325730 -7.462058
v -0.828231 4.036583 -7.087923
v -0.586650 4.036583 -7.087923
v -0.586650 2.179850 -12.020227
v -0.828231 2.179850 -12.020227
v -0.828231 2.179850 -11.471655
v -0.586650 2.179850 -11.471655
v -0.828231 2.152945 -6.696305
v -0.828231 2.152945 -6.145404
v -0.586650 2.152945 -6.145404
v -0.586650 2.152945 -6.696305
vt 0.661671 0.077865
vt 0.675286 0.077865
vt 0.661671 0.303256
vt 0.675286 0.303256
vt 0.661671 0.754039
vt 0.675286 0.754039
vt 0.661671 0.979431
vt 0.675286 0.979431
vt 0.688900 0.077865
vt 0.648057 0.077865
vt 0.661671 0.285065
vt 0.648057 0.285065
vt 0.661671 0.546840
vt 0.675286 0.546840
vt 0.688900 0.285065
vt 0.675286 0.285065
vt 0.661671 0.285065
vt 0.675286 0.285065
vt 0.675286 0.303256
vt 0.661671 0.303256
vt 0.796099 0.049347
vt 0.818682 0.049347
vt 0.818682 0.264101
vt 0.796099 0.264101
vt 0.818682 0.518858
vt 0.796099 0.518858
vt 0.796099 0.538859
vt 0.818682 0.538859
vt 0.818682 0.753613
vt 0.796099 0.753613
vt 0.818682 0.988369
vt 0.796099 0.988369
vt 0.841265 0.049347
vt 0.841265 0.264101
vt 0.773516 0.049347
vt 0.773516 0.264101
vt 0.773516 0.284102
vt 0.841265 0.284102
vt 0.675286 0.635030
vt 0.688900 0.196874
vt 0.648057 0.196874
vt 0.661671 0.635030
vt 0.661671 0.196874
vt 0.675286 0.196874
vt 0.773516 0.171371
vt 0.796099 0.631589
vt 0.796099 0.171371
vt 0.818682 0.171371
vt 0.818682 0.631589
vt 0.841265 0.171371
vn 0.000000 -0.000000 1.000000
vn 0.000000 -0.000000 1.000000
vn 0.000000 -0.381585 0.924334
vn 0.000000 -0.381585 0.924334
vn 0.000000 0.504382 -0.863481
vn 0.000000 0.504382 -0.863481
vn 0.000000 0.000000 -1.000000
vn 0.000000 0.000000 -1.000000
vn 0.000000 -1.000000 0.000000
vn 0.000000 -1.000000 0.000000
vn 0.000000 -1.000000 0.000000
vn 0.000000 -1.000000 0.000000
vn 1.000000 -0.000000 0.000000
vn 1.000000 -0.000000 0.000000
vn 1.000000 -0.000001 0.000000
vn 1.000000 -0.000000 0.000000
vn -1.000000 0.000000 0.000000
vn -1.000000 0.000000 0.000000
vn -1.000000 0.000000 0.000000
vn -1.000000 0.000000 0.000000
vn -1.000000 0.000000 0.000000
vn 0.000000 0.994097 -0.108496
vn 0.000000 0.994097 -0.108496
vn 1.000000 0.000000 0.000000
vn 0.000000 0.000000 1.000000
vn 0.000000 0.000000 1.000000
vn 0.000000 0.000000 1.000000
vn 0.000000 0.000000 1.000000
vn 0.000000 -1.000000 0.000000
vn 0.000000 -1.000000 0.000000
vn 0.000000 -1.000000 0.000000
vn 0.000000 -1.000000 0.000000
vn 1.000000 0.000000 0.000000
vn 1.000000 0.000000 0.000000
vn 0.000000 1.000000 0.000000
vn 0.000000 1.000000 0.000000
vn -1.000000 0.000000 0.000000
vn -1.000000 0.000000 0.000000
vn 0.000000 -0.000000 1.000000
vn 0.000000 -0.000000 1.000000
vn 0.000000 0.500371 0.865811
vn 0.000000 0.500371 0.865811
vn 0.000000 0.688025 0.725687
vn 0.000000 0.688025 0.725687
vn 0.000000 -0.376599 -0.926377
vn 0.000000 -0.376599 -0.926377
vn 0.000000 -0.000000 -1.000000
vn 0.000000 -0.000000 -1.000000
vn 0.000000 -1.000000 0.000000
vn 0.000000 -1.000000 0.000000
vn 0.000000 -1.000000 0.000000
vn 0.000000 -1.000000 0.000000
vn 1.000000 0.000000 0.000000
vn 1.000000 0.000000 0.000000
vn 1.000000 0.000000 0.000000
vn 1.000000 0.000000 0.000000
vn -1.000000 0.000000 0.000000
vn -1.000000 -0.000000 0.000000
vn -1.000000 0.000001 0.000000
vn -1.000000 0.000000 0.000000
vn -1.000000 0.000000 0.000000
vn 0.000000 0.000000 -1.000000
vn 0.000000 0.000000 -1.000000
vn 0.000000 0.000000 -1.000000
vn 0.000000 0.000000 -1.000000
vn 1.000000 0.000000 0.000000
vn 0.000000 -0.352082 -0.935969
vn 0.000000 -0.352082 -0.935969
vn -1.000000 0.000000 0.000000
vn -1.000000 0.000000 0.000000
vn 0.000000 0.292535 0.956255
vn 0.000000 0.292535 0.956255
vn 1.000000 0.000000 0.000000
vn 1.000000 0.000000 0.000000
vn -1.000000 -0.000000 0.000000
vn -1.000000 -0.000000 0.000000
vn 0.000000 -0.355423 0.934706
vn 0.000000 -0.355423 0.934706
vn 1.000000 0.000000 0.000000
vn 1.000000 0.000000 0.000000
vn 0.000000 0.295172 -0.955444
vn 0.000000 0.295172 -0.955444
s 1
g pCube115
f 75/133/147 76/134/148 62/106/149 59/101/150
s 2
f 60/103/151 61/104/152 73/129/153 74/132/154
s off
f 57/95/155 58/96/156 54/98/157 53/97/158
s 3
f 76/134/159 73/130/160 61/105/161 62/106/162
s 4
f 74/131/163 75/133/164 59/101/165 60/102/166
f 60/102/166 59/101/165 55/93/167
s 2
f 56/94/168 61/104/152 60/103/151 55/93/169
s 3
f 62/106/162 61/105/161 56/94/170
s off
f 64/107/171 63/108/172 65/109/173 66/110/174
f 59/101/175 62/106/176 63/108/177 64/107/178
s 3
f 62/106/162 56/94/170 65/109/179 63/108/180
s 2
f 56/94/168 55/93/169 66/110/181 65/109/182
s 4
f 55/93/167 59/101/165 64/107/183 66/110/184
s 5
f 78/137/185 79/138/186 72/113/187 71/114/188
f 65/115/189 66/116/190 71/114/188 72/113/187
s 6
f 64/117/191 63/118/192 80/139/193 77/136/194
s off
f 69/120/195 70/119/196 68/121/197 67/122/198
s 7
f 79/138/199 80/140/200 63/124/201 72/113/202
s 8
f 77/135/203 78/137/204 71/114/205 64/126/206
f 64/126/206 71/114/205 66/127/207
s off
f 66/116/208 65/115/209 63/118/210 64/117/211
s 7
f 72/113/202 63/124/201 65/128/212
s 2
f 74/132/154 73/129/153 58/96/213 57/95/214
s 4
f 57/100/215 53/91/216 75/133/164 74/131/163
s 1
f 53/91/217 54/92/218 76/134/148 75/133/147
s 3
f 54/92/219 58/99/220 73/130/160 76/134/159
s 8
f 69/125/221 67/111/222 78/137/204 77/135/203
s 5
f 67/111/223 68/112/224 79/138/186 78/137/185
s 7
f 68/112/225 70/123/226 80/140/200 79/138/199
s 6
f 77/136/194 80/139/193 70/119/227 69/120/228
