# This file uses centimeters as units for non-parametric coordinates.

mtllib WarningSign.mtl
g default
v 3.000638 3.478338 -7.631291
v 3.000638 4.045028 -7.914636
v 3.000638 3.478338 -8.197981
v 3.045431 4.045028 -7.914636
v 3.045431 3.478338 -7.631291
v 3.045431 3.478338 -8.197981
vt 0.625000 0.000000
vt 0.875000 0.000000
vt 0.750000 0.250000
vt 0.750000 0.250000
vt 0.625000 0.000000
vt 0.875000 0.000000
vt 0.750000 0.250000
vt 0.625000 0.000000
vt 0.875000 0.000000
vn 1.000000 0.000000 0.000000
vn 1.000000 0.000000 0.000000
vn 1.000000 0.000000 0.000000
vn -1.000000 0.000000 0.000000
vn -1.000000 0.000000 0.000000
vn -1.000000 0.000000 0.000000
vn 0.000000 0.447214 0.894427
vn 0.000000 0.447214 0.894427
vn 0.000000 0.447214 0.894427
vn 0.000000 0.447214 0.894427
vn 0.000000 -1.000000 0.000000
vn 0.000000 -1.000000 0.000000
vn 0.000000 -1.000000 0.000000
vn 0.000000 -1.000000 0.000000
vn 0.000000 0.447214 -0.894427
vn 0.000000 0.447214 -0.894427
vn 0.000000 0.447214 -0.894427
vn 0.000000 0.447214 -0.894427
s off
g pCube121
usemtl initialShadingGroup
f 4/7/1 5/8/2 6/9/3
f 2/4/4 3/6/5 1/5/6
f 2/3/7 1/1/8 5/8/9 4/7/10
f 1/1/11 3/2/12 6/9/13 5/8/14
f 3/2/15 2/3/16 4/7/17 6/9/18
